<?xml version="1.0" encoding="utf-8" standalone="no"?>
<!DOCTYPE svg PUBLIC "-//W3C//DTD SVG 1.1//EN"
  "http://www.w3.org/Graphics/SVG/1.1/DTD/svg11.dtd">
<svg xmlns:xlink="http://www.w3.org/1999/xlink" width="1000.470937pt" height="567.095071pt" viewBox="0 0 1000.470937 567.095071" xmlns="http://www.w3.org/2000/svg" version="1.1">
 <metadata>
  <rdf:RDF xmlns:dc="http://purl.org/dc/elements/1.1/" xmlns:cc="http://creativecommons.org/ns#" xmlns:rdf="http://www.w3.org/1999/02/22-rdf-syntax-ns#">
   <cc:Work>
    <dc:type rdf:resource="http://purl.org/dc/dcmitype/StillImage"/>
    <dc:date>2026-05-18T12:56:03.529586</dc:date>
    <dc:format>image/svg+xml</dc:format>
    <dc:creator>
     <cc:Agent>
      <dc:title>Matplotlib v3.10.8, https://matplotlib.org/</dc:title>
     </cc:Agent>
    </dc:creator>
   </cc:Work>
  </rdf:RDF>
 </metadata>
 <defs>
  <style type="text/css">*{stroke-linejoin: round; stroke-linecap: butt}</style>
 </defs>
 <g id="figure_1">
  <g id="patch_1">
   <path d="M 0 567.095071 
L 1000.470937 567.095071 
L 1000.470937 0 
L 0 0 
z
" style="fill: #191a1c"/>
  </g>
  <g id="axes_1">
   <g id="patch_2">
    <path d="M 52.160938 448.362563 
L 993.270938 448.362563 
L 993.270938 22.318125 
L 52.160938 22.318125 
z
" style="fill: #191a1c"/>
   </g>
   <g id="matplotlib.axis_1">
    <g id="xtick_1">
     <g id="line2d_1">
      <path d="M 123.940514 448.362563 
L 123.940514 22.318125 
" clip-path="url(#p9f632c8317)" style="fill: none; stroke-dasharray: 1.85,0.8; stroke-dashoffset: 0; stroke: #808080; stroke-opacity: 0.2; stroke-width: 0.5"/>
     </g>
     <g id="line2d_2">
      <defs>
       <path id="ma1809d2d9d" d="M 0 0 
L 0 3.5 
" style="stroke: #ffffff; stroke-width: 0.8"/>
      </defs>
      <g>
       <use xlink:href="#ma1809d2d9d" x="123.940514" y="448.362563" style="fill: #ffffff; stroke: #ffffff; stroke-width: 0.8"/>
      </g>
     </g>
     <g id="text_1">
      <!-- heart rate -->
      <g style="fill: #ffffff" transform="translate(87.015177 496.190246) rotate(-45) scale(0.1 -0.1)">
       <defs>
        <path id="DejaVuSans-68" d="M 3513 2113 
L 3513 0 
L 2938 0 
L 2938 2094 
Q 2938 2591 2744 2837 
Q 2550 3084 2163 3084 
Q 1697 3084 1428 2787 
Q 1159 2491 1159 1978 
L 1159 0 
L 581 0 
L 581 4863 
L 1159 4863 
L 1159 2956 
Q 1366 3272 1645 3428 
Q 1925 3584 2291 3584 
Q 2894 3584 3203 3211 
Q 3513 2838 3513 2113 
z
" transform="scale(0.015625)"/>
        <path id="DejaVuSans-65" d="M 3597 1894 
L 3597 1613 
L 953 1613 
Q 991 1019 1311 708 
Q 1631 397 2203 397 
Q 2534 397 2845 478 
Q 3156 559 3463 722 
L 3463 178 
Q 3153 47 2828 -22 
Q 2503 -91 2169 -91 
Q 1331 -91 842 396 
Q 353 884 353 1716 
Q 353 2575 817 3079 
Q 1281 3584 2069 3584 
Q 2775 3584 3186 3129 
Q 3597 2675 3597 1894 
z
M 3022 2063 
Q 3016 2534 2758 2815 
Q 2500 3097 2075 3097 
Q 1594 3097 1305 2825 
Q 1016 2553 972 2059 
L 3022 2063 
z
" transform="scale(0.015625)"/>
        <path id="DejaVuSans-61" d="M 2194 1759 
Q 1497 1759 1228 1600 
Q 959 1441 959 1056 
Q 959 750 1161 570 
Q 1363 391 1709 391 
Q 2188 391 2477 730 
Q 2766 1069 2766 1631 
L 2766 1759 
L 2194 1759 
z
M 3341 1997 
L 3341 0 
L 2766 0 
L 2766 531 
Q 2569 213 2275 61 
Q 1981 -91 1556 -91 
Q 1019 -91 701 211 
Q 384 513 384 1019 
Q 384 1609 779 1909 
Q 1175 2209 1959 2209 
L 2766 2209 
L 2766 2266 
Q 2766 2663 2505 2880 
Q 2244 3097 1772 3097 
Q 1472 3097 1187 3025 
Q 903 2953 641 2809 
L 641 3341 
Q 956 3463 1253 3523 
Q 1550 3584 1831 3584 
Q 2591 3584 2966 3190 
Q 3341 2797 3341 1997 
z
" transform="scale(0.015625)"/>
        <path id="DejaVuSans-72" d="M 2631 2963 
Q 2534 3019 2420 3045 
Q 2306 3072 2169 3072 
Q 1681 3072 1420 2755 
Q 1159 2438 1159 1844 
L 1159 0 
L 581 0 
L 581 3500 
L 1159 3500 
L 1159 2956 
Q 1341 3275 1631 3429 
Q 1922 3584 2338 3584 
Q 2397 3584 2469 3576 
Q 2541 3569 2628 3553 
L 2631 2963 
z
" transform="scale(0.015625)"/>
        <path id="DejaVuSans-74" d="M 1172 4494 
L 1172 3500 
L 2356 3500 
L 2356 3053 
L 1172 3053 
L 1172 1153 
Q 1172 725 1289 603 
Q 1406 481 1766 481 
L 2356 481 
L 2356 0 
L 1766 0 
Q 1100 0 847 248 
Q 594 497 594 1153 
L 594 3053 
L 172 3053 
L 172 3500 
L 594 3500 
L 594 4494 
L 1172 4494 
z
" transform="scale(0.015625)"/>
        <path id="DejaVuSans-20" transform="scale(0.015625)"/>
       </defs>
       <use xlink:href="#DejaVuSans-68"/>
       <use xlink:href="#DejaVuSans-65" transform="translate(63.378906 0)"/>
       <use xlink:href="#DejaVuSans-61" transform="translate(124.902344 0)"/>
       <use xlink:href="#DejaVuSans-72" transform="translate(186.181641 0)"/>
       <use xlink:href="#DejaVuSans-74" transform="translate(227.294922 0)"/>
       <use xlink:href="#DejaVuSans-20" transform="translate(266.503906 0)"/>
       <use xlink:href="#DejaVuSans-72" transform="translate(298.291016 0)"/>
       <use xlink:href="#DejaVuSans-61" transform="translate(339.404297 0)"/>
       <use xlink:href="#DejaVuSans-74" transform="translate(400.683594 0)"/>
       <use xlink:href="#DejaVuSans-65" transform="translate(439.892578 0)"/>
      </g>
     </g>
    </g>
    <g id="xtick_2">
     <g id="line2d_3">
      <path d="M 196.445136 448.362563 
L 196.445136 22.318125 
" clip-path="url(#p9f632c8317)" style="fill: none; stroke-dasharray: 1.85,0.8; stroke-dashoffset: 0; stroke: #808080; stroke-opacity: 0.2; stroke-width: 0.5"/>
     </g>
     <g id="line2d_4">
      <g>
       <use xlink:href="#ma1809d2d9d" x="196.445136" y="448.362563" style="fill: #ffffff; stroke: #ffffff; stroke-width: 0.8"/>
      </g>
     </g>
     <g id="text_2">
      <!-- systolic blood pressure -->
      <g style="fill: #ffffff" transform="translate(113.881581 541.828465) rotate(-45) scale(0.1 -0.1)">
       <defs>
        <path id="DejaVuSans-73" d="M 2834 3397 
L 2834 2853 
Q 2591 2978 2328 3040 
Q 2066 3103 1784 3103 
Q 1356 3103 1142 2972 
Q 928 2841 928 2578 
Q 928 2378 1081 2264 
Q 1234 2150 1697 2047 
L 1894 2003 
Q 2506 1872 2764 1633 
Q 3022 1394 3022 966 
Q 3022 478 2636 193 
Q 2250 -91 1575 -91 
Q 1294 -91 989 -36 
Q 684 19 347 128 
L 347 722 
Q 666 556 975 473 
Q 1284 391 1588 391 
Q 1994 391 2212 530 
Q 2431 669 2431 922 
Q 2431 1156 2273 1281 
Q 2116 1406 1581 1522 
L 1381 1569 
Q 847 1681 609 1914 
Q 372 2147 372 2553 
Q 372 3047 722 3315 
Q 1072 3584 1716 3584 
Q 2034 3584 2315 3537 
Q 2597 3491 2834 3397 
z
" transform="scale(0.015625)"/>
        <path id="DejaVuSans-79" d="M 2059 -325 
Q 1816 -950 1584 -1140 
Q 1353 -1331 966 -1331 
L 506 -1331 
L 506 -850 
L 844 -850 
Q 1081 -850 1212 -737 
Q 1344 -625 1503 -206 
L 1606 56 
L 191 3500 
L 800 3500 
L 1894 763 
L 2988 3500 
L 3597 3500 
L 2059 -325 
z
" transform="scale(0.015625)"/>
        <path id="DejaVuSans-6f" d="M 1959 3097 
Q 1497 3097 1228 2736 
Q 959 2375 959 1747 
Q 959 1119 1226 758 
Q 1494 397 1959 397 
Q 2419 397 2687 759 
Q 2956 1122 2956 1747 
Q 2956 2369 2687 2733 
Q 2419 3097 1959 3097 
z
M 1959 3584 
Q 2709 3584 3137 3096 
Q 3566 2609 3566 1747 
Q 3566 888 3137 398 
Q 2709 -91 1959 -91 
Q 1206 -91 779 398 
Q 353 888 353 1747 
Q 353 2609 779 3096 
Q 1206 3584 1959 3584 
z
" transform="scale(0.015625)"/>
        <path id="DejaVuSans-6c" d="M 603 4863 
L 1178 4863 
L 1178 0 
L 603 0 
L 603 4863 
z
" transform="scale(0.015625)"/>
        <path id="DejaVuSans-69" d="M 603 3500 
L 1178 3500 
L 1178 0 
L 603 0 
L 603 3500 
z
M 603 4863 
L 1178 4863 
L 1178 4134 
L 603 4134 
L 603 4863 
z
" transform="scale(0.015625)"/>
        <path id="DejaVuSans-63" d="M 3122 3366 
L 3122 2828 
Q 2878 2963 2633 3030 
Q 2388 3097 2138 3097 
Q 1578 3097 1268 2742 
Q 959 2388 959 1747 
Q 959 1106 1268 751 
Q 1578 397 2138 397 
Q 2388 397 2633 464 
Q 2878 531 3122 666 
L 3122 134 
Q 2881 22 2623 -34 
Q 2366 -91 2075 -91 
Q 1284 -91 818 406 
Q 353 903 353 1747 
Q 353 2603 823 3093 
Q 1294 3584 2113 3584 
Q 2378 3584 2631 3529 
Q 2884 3475 3122 3366 
z
" transform="scale(0.015625)"/>
        <path id="DejaVuSans-62" d="M 3116 1747 
Q 3116 2381 2855 2742 
Q 2594 3103 2138 3103 
Q 1681 3103 1420 2742 
Q 1159 2381 1159 1747 
Q 1159 1113 1420 752 
Q 1681 391 2138 391 
Q 2594 391 2855 752 
Q 3116 1113 3116 1747 
z
M 1159 2969 
Q 1341 3281 1617 3432 
Q 1894 3584 2278 3584 
Q 2916 3584 3314 3078 
Q 3713 2572 3713 1747 
Q 3713 922 3314 415 
Q 2916 -91 2278 -91 
Q 1894 -91 1617 61 
Q 1341 213 1159 525 
L 1159 0 
L 581 0 
L 581 4863 
L 1159 4863 
L 1159 2969 
z
" transform="scale(0.015625)"/>
        <path id="DejaVuSans-64" d="M 2906 2969 
L 2906 4863 
L 3481 4863 
L 3481 0 
L 2906 0 
L 2906 525 
Q 2725 213 2448 61 
Q 2172 -91 1784 -91 
Q 1150 -91 751 415 
Q 353 922 353 1747 
Q 353 2572 751 3078 
Q 1150 3584 1784 3584 
Q 2172 3584 2448 3432 
Q 2725 3281 2906 2969 
z
M 947 1747 
Q 947 1113 1208 752 
Q 1469 391 1925 391 
Q 2381 391 2643 752 
Q 2906 1113 2906 1747 
Q 2906 2381 2643 2742 
Q 2381 3103 1925 3103 
Q 1469 3103 1208 2742 
Q 947 2381 947 1747 
z
" transform="scale(0.015625)"/>
        <path id="DejaVuSans-70" d="M 1159 525 
L 1159 -1331 
L 581 -1331 
L 581 3500 
L 1159 3500 
L 1159 2969 
Q 1341 3281 1617 3432 
Q 1894 3584 2278 3584 
Q 2916 3584 3314 3078 
Q 3713 2572 3713 1747 
Q 3713 922 3314 415 
Q 2916 -91 2278 -91 
Q 1894 -91 1617 61 
Q 1341 213 1159 525 
z
M 3116 1747 
Q 3116 2381 2855 2742 
Q 2594 3103 2138 3103 
Q 1681 3103 1420 2742 
Q 1159 2381 1159 1747 
Q 1159 1113 1420 752 
Q 1681 391 2138 391 
Q 2594 391 2855 752 
Q 3116 1113 3116 1747 
z
" transform="scale(0.015625)"/>
        <path id="DejaVuSans-75" d="M 544 1381 
L 544 3500 
L 1119 3500 
L 1119 1403 
Q 1119 906 1312 657 
Q 1506 409 1894 409 
Q 2359 409 2629 706 
Q 2900 1003 2900 1516 
L 2900 3500 
L 3475 3500 
L 3475 0 
L 2900 0 
L 2900 538 
Q 2691 219 2414 64 
Q 2138 -91 1772 -91 
Q 1169 -91 856 284 
Q 544 659 544 1381 
z
M 1991 3584 
L 1991 3584 
z
" transform="scale(0.015625)"/>
       </defs>
       <use xlink:href="#DejaVuSans-73"/>
       <use xlink:href="#DejaVuSans-79" transform="translate(52.099609 0)"/>
       <use xlink:href="#DejaVuSans-73" transform="translate(111.279297 0)"/>
       <use xlink:href="#DejaVuSans-74" transform="translate(163.378906 0)"/>
       <use xlink:href="#DejaVuSans-6f" transform="translate(202.587891 0)"/>
       <use xlink:href="#DejaVuSans-6c" transform="translate(263.769531 0)"/>
       <use xlink:href="#DejaVuSans-69" transform="translate(291.552734 0)"/>
       <use xlink:href="#DejaVuSans-63" transform="translate(319.335938 0)"/>
       <use xlink:href="#DejaVuSans-20" transform="translate(374.316406 0)"/>
       <use xlink:href="#DejaVuSans-62" transform="translate(406.103516 0)"/>
       <use xlink:href="#DejaVuSans-6c" transform="translate(469.580078 0)"/>
       <use xlink:href="#DejaVuSans-6f" transform="translate(497.363281 0)"/>
       <use xlink:href="#DejaVuSans-6f" transform="translate(558.544922 0)"/>
       <use xlink:href="#DejaVuSans-64" transform="translate(619.726562 0)"/>
       <use xlink:href="#DejaVuSans-20" transform="translate(683.203125 0)"/>
       <use xlink:href="#DejaVuSans-70" transform="translate(714.990234 0)"/>
       <use xlink:href="#DejaVuSans-72" transform="translate(778.466797 0)"/>
       <use xlink:href="#DejaVuSans-65" transform="translate(817.330078 0)"/>
       <use xlink:href="#DejaVuSans-73" transform="translate(878.853516 0)"/>
       <use xlink:href="#DejaVuSans-73" transform="translate(930.953125 0)"/>
       <use xlink:href="#DejaVuSans-75" transform="translate(983.052734 0)"/>
       <use xlink:href="#DejaVuSans-72" transform="translate(1046.431641 0)"/>
       <use xlink:href="#DejaVuSans-65" transform="translate(1085.294922 0)"/>
      </g>
     </g>
    </g>
    <g id="xtick_3">
     <g id="line2d_5">
      <path d="M 268.949759 448.362563 
L 268.949759 22.318125 
" clip-path="url(#p9f632c8317)" style="fill: none; stroke-dasharray: 1.85,0.8; stroke-dashoffset: 0; stroke: #808080; stroke-opacity: 0.2; stroke-width: 0.5"/>
     </g>
     <g id="line2d_6">
      <g>
       <use xlink:href="#ma1809d2d9d" x="268.949759" y="448.362563" style="fill: #ffffff; stroke: #ffffff; stroke-width: 0.8"/>
      </g>
     </g>
     <g id="text_3">
      <!-- diastolic blood pressure -->
      <g style="fill: #ffffff" transform="translate(183.468283 544.746385) rotate(-45) scale(0.1 -0.1)">
       <use xlink:href="#DejaVuSans-64"/>
       <use xlink:href="#DejaVuSans-69" transform="translate(63.476562 0)"/>
       <use xlink:href="#DejaVuSans-61" transform="translate(91.259766 0)"/>
       <use xlink:href="#DejaVuSans-73" transform="translate(152.539062 0)"/>
       <use xlink:href="#DejaVuSans-74" transform="translate(204.638672 0)"/>
       <use xlink:href="#DejaVuSans-6f" transform="translate(243.847656 0)"/>
       <use xlink:href="#DejaVuSans-6c" transform="translate(305.029297 0)"/>
       <use xlink:href="#DejaVuSans-69" transform="translate(332.8125 0)"/>
       <use xlink:href="#DejaVuSans-63" transform="translate(360.595703 0)"/>
       <use xlink:href="#DejaVuSans-20" transform="translate(415.576172 0)"/>
       <use xlink:href="#DejaVuSans-62" transform="translate(447.363281 0)"/>
       <use xlink:href="#DejaVuSans-6c" transform="translate(510.839844 0)"/>
       <use xlink:href="#DejaVuSans-6f" transform="translate(538.623047 0)"/>
       <use xlink:href="#DejaVuSans-6f" transform="translate(599.804688 0)"/>
       <use xlink:href="#DejaVuSans-64" transform="translate(660.986328 0)"/>
       <use xlink:href="#DejaVuSans-20" transform="translate(724.462891 0)"/>
       <use xlink:href="#DejaVuSans-70" transform="translate(756.25 0)"/>
       <use xlink:href="#DejaVuSans-72" transform="translate(819.726562 0)"/>
       <use xlink:href="#DejaVuSans-65" transform="translate(858.589844 0)"/>
       <use xlink:href="#DejaVuSans-73" transform="translate(920.113281 0)"/>
       <use xlink:href="#DejaVuSans-73" transform="translate(972.212891 0)"/>
       <use xlink:href="#DejaVuSans-75" transform="translate(1024.3125 0)"/>
       <use xlink:href="#DejaVuSans-72" transform="translate(1087.691406 0)"/>
       <use xlink:href="#DejaVuSans-65" transform="translate(1126.554688 0)"/>
      </g>
     </g>
    </g>
    <g id="xtick_4">
     <g id="line2d_7">
      <path d="M 341.454381 448.362563 
L 341.454381 22.318125 
" clip-path="url(#p9f632c8317)" style="fill: none; stroke-dasharray: 1.85,0.8; stroke-dashoffset: 0; stroke: #808080; stroke-opacity: 0.2; stroke-width: 0.5"/>
     </g>
     <g id="line2d_8">
      <g>
       <use xlink:href="#ma1809d2d9d" x="341.454381" y="448.362563" style="fill: #ffffff; stroke: #ffffff; stroke-width: 0.8"/>
      </g>
     </g>
     <g id="text_4">
      <!-- mean blood pressure -->
      <g style="fill: #ffffff" transform="translate(265.30561 535.41368) rotate(-45) scale(0.1 -0.1)">
       <defs>
        <path id="DejaVuSans-6d" d="M 3328 2828 
Q 3544 3216 3844 3400 
Q 4144 3584 4550 3584 
Q 5097 3584 5394 3201 
Q 5691 2819 5691 2113 
L 5691 0 
L 5113 0 
L 5113 2094 
Q 5113 2597 4934 2840 
Q 4756 3084 4391 3084 
Q 3944 3084 3684 2787 
Q 3425 2491 3425 1978 
L 3425 0 
L 2847 0 
L 2847 2094 
Q 2847 2600 2669 2842 
Q 2491 3084 2119 3084 
Q 1678 3084 1418 2786 
Q 1159 2488 1159 1978 
L 1159 0 
L 581 0 
L 581 3500 
L 1159 3500 
L 1159 2956 
Q 1356 3278 1631 3431 
Q 1906 3584 2284 3584 
Q 2666 3584 2933 3390 
Q 3200 3197 3328 2828 
z
" transform="scale(0.015625)"/>
        <path id="DejaVuSans-6e" d="M 3513 2113 
L 3513 0 
L 2938 0 
L 2938 2094 
Q 2938 2591 2744 2837 
Q 2550 3084 2163 3084 
Q 1697 3084 1428 2787 
Q 1159 2491 1159 1978 
L 1159 0 
L 581 0 
L 581 3500 
L 1159 3500 
L 1159 2956 
Q 1366 3272 1645 3428 
Q 1925 3584 2291 3584 
Q 2894 3584 3203 3211 
Q 3513 2838 3513 2113 
z
" transform="scale(0.015625)"/>
       </defs>
       <use xlink:href="#DejaVuSans-6d"/>
       <use xlink:href="#DejaVuSans-65" transform="translate(97.412109 0)"/>
       <use xlink:href="#DejaVuSans-61" transform="translate(158.935547 0)"/>
       <use xlink:href="#DejaVuSans-6e" transform="translate(220.214844 0)"/>
       <use xlink:href="#DejaVuSans-20" transform="translate(283.59375 0)"/>
       <use xlink:href="#DejaVuSans-62" transform="translate(315.380859 0)"/>
       <use xlink:href="#DejaVuSans-6c" transform="translate(378.857422 0)"/>
       <use xlink:href="#DejaVuSans-6f" transform="translate(406.640625 0)"/>
       <use xlink:href="#DejaVuSans-6f" transform="translate(467.822266 0)"/>
       <use xlink:href="#DejaVuSans-64" transform="translate(529.003906 0)"/>
       <use xlink:href="#DejaVuSans-20" transform="translate(592.480469 0)"/>
       <use xlink:href="#DejaVuSans-70" transform="translate(624.267578 0)"/>
       <use xlink:href="#DejaVuSans-72" transform="translate(687.744141 0)"/>
       <use xlink:href="#DejaVuSans-65" transform="translate(726.607422 0)"/>
       <use xlink:href="#DejaVuSans-73" transform="translate(788.130859 0)"/>
       <use xlink:href="#DejaVuSans-73" transform="translate(840.230469 0)"/>
       <use xlink:href="#DejaVuSans-75" transform="translate(892.330078 0)"/>
       <use xlink:href="#DejaVuSans-72" transform="translate(955.708984 0)"/>
       <use xlink:href="#DejaVuSans-65" transform="translate(994.572266 0)"/>
      </g>
     </g>
    </g>
    <g id="xtick_5">
     <g id="line2d_9">
      <path d="M 413.959004 448.362563 
L 413.959004 22.318125 
" clip-path="url(#p9f632c8317)" style="fill: none; stroke-dasharray: 1.85,0.8; stroke-dashoffset: 0; stroke: #808080; stroke-opacity: 0.2; stroke-width: 0.5"/>
     </g>
     <g id="line2d_10">
      <g>
       <use xlink:href="#ma1809d2d9d" x="413.959004" y="448.362563" style="fill: #ffffff; stroke: #ffffff; stroke-width: 0.8"/>
      </g>
     </g>
     <g id="text_5">
      <!-- respiration rate -->
      <g style="fill: #ffffff" transform="translate(357.857815 515.366098) rotate(-45) scale(0.1 -0.1)">
       <use xlink:href="#DejaVuSans-72"/>
       <use xlink:href="#DejaVuSans-65" transform="translate(38.863281 0)"/>
       <use xlink:href="#DejaVuSans-73" transform="translate(100.386719 0)"/>
       <use xlink:href="#DejaVuSans-70" transform="translate(152.486328 0)"/>
       <use xlink:href="#DejaVuSans-69" transform="translate(215.962891 0)"/>
       <use xlink:href="#DejaVuSans-72" transform="translate(243.746094 0)"/>
       <use xlink:href="#DejaVuSans-61" transform="translate(284.859375 0)"/>
       <use xlink:href="#DejaVuSans-74" transform="translate(346.138672 0)"/>
       <use xlink:href="#DejaVuSans-69" transform="translate(385.347656 0)"/>
       <use xlink:href="#DejaVuSans-6f" transform="translate(413.130859 0)"/>
       <use xlink:href="#DejaVuSans-6e" transform="translate(474.3125 0)"/>
       <use xlink:href="#DejaVuSans-20" transform="translate(537.691406 0)"/>
       <use xlink:href="#DejaVuSans-72" transform="translate(569.478516 0)"/>
       <use xlink:href="#DejaVuSans-61" transform="translate(610.591797 0)"/>
       <use xlink:href="#DejaVuSans-74" transform="translate(671.871094 0)"/>
       <use xlink:href="#DejaVuSans-65" transform="translate(711.080078 0)"/>
      </g>
     </g>
    </g>
    <g id="xtick_6">
     <g id="line2d_11">
      <path d="M 486.463626 448.362563 
L 486.463626 22.318125 
" clip-path="url(#p9f632c8317)" style="fill: none; stroke-dasharray: 1.85,0.8; stroke-dashoffset: 0; stroke: #808080; stroke-opacity: 0.2; stroke-width: 0.5"/>
     </g>
     <g id="line2d_12">
      <g>
       <use xlink:href="#ma1809d2d9d" x="486.463626" y="448.362563" style="fill: #ffffff; stroke: #ffffff; stroke-width: 0.8"/>
      </g>
     </g>
     <g id="text_6">
      <!-- temperature -->
      <g style="fill: #ffffff" transform="translate(440.550299 505.178236) rotate(-45) scale(0.1 -0.1)">
       <use xlink:href="#DejaVuSans-74"/>
       <use xlink:href="#DejaVuSans-65" transform="translate(39.208984 0)"/>
       <use xlink:href="#DejaVuSans-6d" transform="translate(100.732422 0)"/>
       <use xlink:href="#DejaVuSans-70" transform="translate(198.144531 0)"/>
       <use xlink:href="#DejaVuSans-65" transform="translate(261.621094 0)"/>
       <use xlink:href="#DejaVuSans-72" transform="translate(323.144531 0)"/>
       <use xlink:href="#DejaVuSans-61" transform="translate(364.257812 0)"/>
       <use xlink:href="#DejaVuSans-74" transform="translate(425.537109 0)"/>
       <use xlink:href="#DejaVuSans-75" transform="translate(464.746094 0)"/>
       <use xlink:href="#DejaVuSans-72" transform="translate(528.125 0)"/>
       <use xlink:href="#DejaVuSans-65" transform="translate(566.988281 0)"/>
      </g>
     </g>
    </g>
    <g id="xtick_7">
     <g id="line2d_13">
      <path d="M 558.968249 448.362563 
L 558.968249 22.318125 
" clip-path="url(#p9f632c8317)" style="fill: none; stroke-dasharray: 1.85,0.8; stroke-dashoffset: 0; stroke: #808080; stroke-opacity: 0.2; stroke-width: 0.5"/>
     </g>
     <g id="line2d_14">
      <g>
       <use xlink:href="#ma1809d2d9d" x="558.968249" y="448.362563" style="fill: #ffffff; stroke: #ffffff; stroke-width: 0.8"/>
      </g>
     </g>
     <g id="text_7">
      <!-- oxygen saturation -->
      <g style="fill: #ffffff" transform="translate(493.398458 524.8347) rotate(-45) scale(0.1 -0.1)">
       <defs>
        <path id="DejaVuSans-78" d="M 3513 3500 
L 2247 1797 
L 3578 0 
L 2900 0 
L 1881 1375 
L 863 0 
L 184 0 
L 1544 1831 
L 300 3500 
L 978 3500 
L 1906 2253 
L 2834 3500 
L 3513 3500 
z
" transform="scale(0.015625)"/>
        <path id="DejaVuSans-67" d="M 2906 1791 
Q 2906 2416 2648 2759 
Q 2391 3103 1925 3103 
Q 1463 3103 1205 2759 
Q 947 2416 947 1791 
Q 947 1169 1205 825 
Q 1463 481 1925 481 
Q 2391 481 2648 825 
Q 2906 1169 2906 1791 
z
M 3481 434 
Q 3481 -459 3084 -895 
Q 2688 -1331 1869 -1331 
Q 1566 -1331 1297 -1286 
Q 1028 -1241 775 -1147 
L 775 -588 
Q 1028 -725 1275 -790 
Q 1522 -856 1778 -856 
Q 2344 -856 2625 -561 
Q 2906 -266 2906 331 
L 2906 616 
Q 2728 306 2450 153 
Q 2172 0 1784 0 
Q 1141 0 747 490 
Q 353 981 353 1791 
Q 353 2603 747 3093 
Q 1141 3584 1784 3584 
Q 2172 3584 2450 3431 
Q 2728 3278 2906 2969 
L 2906 3500 
L 3481 3500 
L 3481 434 
z
" transform="scale(0.015625)"/>
       </defs>
       <use xlink:href="#DejaVuSans-6f"/>
       <use xlink:href="#DejaVuSans-78" transform="translate(58.056641 0)"/>
       <use xlink:href="#DejaVuSans-79" transform="translate(117.236328 0)"/>
       <use xlink:href="#DejaVuSans-67" transform="translate(176.416016 0)"/>
       <use xlink:href="#DejaVuSans-65" transform="translate(239.892578 0)"/>
       <use xlink:href="#DejaVuSans-6e" transform="translate(301.416016 0)"/>
       <use xlink:href="#DejaVuSans-20" transform="translate(364.794922 0)"/>
       <use xlink:href="#DejaVuSans-73" transform="translate(396.582031 0)"/>
       <use xlink:href="#DejaVuSans-61" transform="translate(448.681641 0)"/>
       <use xlink:href="#DejaVuSans-74" transform="translate(509.960938 0)"/>
       <use xlink:href="#DejaVuSans-75" transform="translate(549.169922 0)"/>
       <use xlink:href="#DejaVuSans-72" transform="translate(612.548828 0)"/>
       <use xlink:href="#DejaVuSans-61" transform="translate(653.662109 0)"/>
       <use xlink:href="#DejaVuSans-74" transform="translate(714.941406 0)"/>
       <use xlink:href="#DejaVuSans-69" transform="translate(754.150391 0)"/>
       <use xlink:href="#DejaVuSans-6f" transform="translate(781.933594 0)"/>
       <use xlink:href="#DejaVuSans-6e" transform="translate(843.115234 0)"/>
      </g>
     </g>
    </g>
    <g id="xtick_8">
     <g id="line2d_15">
      <path d="M 631.472871 448.362563 
L 631.472871 22.318125 
" clip-path="url(#p9f632c8317)" style="fill: none; stroke-dasharray: 1.85,0.8; stroke-dashoffset: 0; stroke: #808080; stroke-opacity: 0.2; stroke-width: 0.5"/>
     </g>
     <g id="line2d_16">
      <g>
       <use xlink:href="#ma1809d2d9d" x="631.472871" y="448.362563" style="fill: #ffffff; stroke: #ffffff; stroke-width: 0.8"/>
      </g>
     </g>
     <g id="text_8">
      <!-- fill missing data -->
      <g style="fill: #ffffff" transform="translate(574.043647 516.694133) rotate(-45) scale(0.1 -0.1)">
       <defs>
        <path id="DejaVuSans-66" d="M 2375 4863 
L 2375 4384 
L 1825 4384 
Q 1516 4384 1395 4259 
Q 1275 4134 1275 3809 
L 1275 3500 
L 2222 3500 
L 2222 3053 
L 1275 3053 
L 1275 0 
L 697 0 
L 697 3053 
L 147 3053 
L 147 3500 
L 697 3500 
L 697 3744 
Q 697 4328 969 4595 
Q 1241 4863 1831 4863 
L 2375 4863 
z
" transform="scale(0.015625)"/>
       </defs>
       <use xlink:href="#DejaVuSans-66"/>
       <use xlink:href="#DejaVuSans-69" transform="translate(35.205078 0)"/>
       <use xlink:href="#DejaVuSans-6c" transform="translate(62.988281 0)"/>
       <use xlink:href="#DejaVuSans-6c" transform="translate(90.771484 0)"/>
       <use xlink:href="#DejaVuSans-20" transform="translate(118.554688 0)"/>
       <use xlink:href="#DejaVuSans-6d" transform="translate(150.341797 0)"/>
       <use xlink:href="#DejaVuSans-69" transform="translate(247.753906 0)"/>
       <use xlink:href="#DejaVuSans-73" transform="translate(275.537109 0)"/>
       <use xlink:href="#DejaVuSans-73" transform="translate(327.636719 0)"/>
       <use xlink:href="#DejaVuSans-69" transform="translate(379.736328 0)"/>
       <use xlink:href="#DejaVuSans-6e" transform="translate(407.519531 0)"/>
       <use xlink:href="#DejaVuSans-67" transform="translate(470.898438 0)"/>
       <use xlink:href="#DejaVuSans-20" transform="translate(534.375 0)"/>
       <use xlink:href="#DejaVuSans-64" transform="translate(566.162109 0)"/>
       <use xlink:href="#DejaVuSans-61" transform="translate(629.638672 0)"/>
       <use xlink:href="#DejaVuSans-74" transform="translate(690.917969 0)"/>
       <use xlink:href="#DejaVuSans-61" transform="translate(730.126953 0)"/>
      </g>
     </g>
    </g>
    <g id="xtick_9">
     <g id="line2d_17">
      <path d="M 703.977494 448.362563 
L 703.977494 22.318125 
" clip-path="url(#p9f632c8317)" style="fill: none; stroke-dasharray: 1.85,0.8; stroke-dashoffset: 0; stroke: #808080; stroke-opacity: 0.2; stroke-width: 0.5"/>
     </g>
     <g id="line2d_18">
      <g>
       <use xlink:href="#ma1809d2d9d" x="703.977494" y="448.362563" style="fill: #ffffff; stroke: #ffffff; stroke-width: 0.8"/>
      </g>
     </g>
     <g id="text_9">
      <!-- long missing segment -->
      <g style="fill: #ffffff" transform="translate(624.581556 538.660847) rotate(-45) scale(0.1 -0.1)">
       <use xlink:href="#DejaVuSans-6c"/>
       <use xlink:href="#DejaVuSans-6f" transform="translate(27.783203 0)"/>
       <use xlink:href="#DejaVuSans-6e" transform="translate(88.964844 0)"/>
       <use xlink:href="#DejaVuSans-67" transform="translate(152.34375 0)"/>
       <use xlink:href="#DejaVuSans-20" transform="translate(215.820312 0)"/>
       <use xlink:href="#DejaVuSans-6d" transform="translate(247.607422 0)"/>
       <use xlink:href="#DejaVuSans-69" transform="translate(345.019531 0)"/>
       <use xlink:href="#DejaVuSans-73" transform="translate(372.802734 0)"/>
       <use xlink:href="#DejaVuSans-73" transform="translate(424.902344 0)"/>
       <use xlink:href="#DejaVuSans-69" transform="translate(477.001953 0)"/>
       <use xlink:href="#DejaVuSans-6e" transform="translate(504.785156 0)"/>
       <use xlink:href="#DejaVuSans-67" transform="translate(568.164062 0)"/>
       <use xlink:href="#DejaVuSans-20" transform="translate(631.640625 0)"/>
       <use xlink:href="#DejaVuSans-73" transform="translate(663.427734 0)"/>
       <use xlink:href="#DejaVuSans-65" transform="translate(715.527344 0)"/>
       <use xlink:href="#DejaVuSans-67" transform="translate(777.050781 0)"/>
       <use xlink:href="#DejaVuSans-6d" transform="translate(840.527344 0)"/>
       <use xlink:href="#DejaVuSans-65" transform="translate(937.939453 0)"/>
       <use xlink:href="#DejaVuSans-6e" transform="translate(999.462891 0)"/>
       <use xlink:href="#DejaVuSans-74" transform="translate(1062.841797 0)"/>
      </g>
     </g>
    </g>
    <g id="xtick_10">
     <g id="line2d_19">
      <path d="M 776.482116 448.362563 
L 776.482116 22.318125 
" clip-path="url(#p9f632c8317)" style="fill: none; stroke-dasharray: 1.85,0.8; stroke-dashoffset: 0; stroke: #808080; stroke-opacity: 0.2; stroke-width: 0.5"/>
     </g>
     <g id="line2d_20">
      <g>
       <use xlink:href="#ma1809d2d9d" x="776.482116" y="448.362563" style="fill: #ffffff; stroke: #ffffff; stroke-width: 0.8"/>
      </g>
     </g>
     <g id="text_10">
      <!-- long gap -->
      <g style="fill: #ffffff" transform="translate(744.191643 491.555382) rotate(-45) scale(0.1 -0.1)">
       <use xlink:href="#DejaVuSans-6c"/>
       <use xlink:href="#DejaVuSans-6f" transform="translate(27.783203 0)"/>
       <use xlink:href="#DejaVuSans-6e" transform="translate(88.964844 0)"/>
       <use xlink:href="#DejaVuSans-67" transform="translate(152.34375 0)"/>
       <use xlink:href="#DejaVuSans-20" transform="translate(215.820312 0)"/>
       <use xlink:href="#DejaVuSans-67" transform="translate(247.607422 0)"/>
       <use xlink:href="#DejaVuSans-61" transform="translate(311.083984 0)"/>
       <use xlink:href="#DejaVuSans-70" transform="translate(372.363281 0)"/>
      </g>
     </g>
    </g>
    <g id="xtick_11">
     <g id="line2d_21">
      <path d="M 848.986739 448.362563 
L 848.986739 22.318125 
" clip-path="url(#p9f632c8317)" style="fill: none; stroke-dasharray: 1.85,0.8; stroke-dashoffset: 0; stroke: #808080; stroke-opacity: 0.2; stroke-width: 0.5"/>
     </g>
     <g id="line2d_22">
      <g>
       <use xlink:href="#ma1809d2d9d" x="848.986739" y="448.362563" style="fill: #ffffff; stroke: #ffffff; stroke-width: 0.8"/>
      </g>
     </g>
     <g id="text_11">
      <!-- high invalid data -->
      <g style="fill: #ffffff" transform="translate(788.295985 519.955663) rotate(-45) scale(0.1 -0.1)">
       <defs>
        <path id="DejaVuSans-76" d="M 191 3500 
L 800 3500 
L 1894 563 
L 2988 3500 
L 3597 3500 
L 2284 0 
L 1503 0 
L 191 3500 
z
" transform="scale(0.015625)"/>
       </defs>
       <use xlink:href="#DejaVuSans-68"/>
       <use xlink:href="#DejaVuSans-69" transform="translate(63.378906 0)"/>
       <use xlink:href="#DejaVuSans-67" transform="translate(91.162109 0)"/>
       <use xlink:href="#DejaVuSans-68" transform="translate(154.638672 0)"/>
       <use xlink:href="#DejaVuSans-20" transform="translate(218.017578 0)"/>
       <use xlink:href="#DejaVuSans-69" transform="translate(249.804688 0)"/>
       <use xlink:href="#DejaVuSans-6e" transform="translate(277.587891 0)"/>
       <use xlink:href="#DejaVuSans-76" transform="translate(340.966797 0)"/>
       <use xlink:href="#DejaVuSans-61" transform="translate(400.146484 0)"/>
       <use xlink:href="#DejaVuSans-6c" transform="translate(461.425781 0)"/>
       <use xlink:href="#DejaVuSans-69" transform="translate(489.208984 0)"/>
       <use xlink:href="#DejaVuSans-64" transform="translate(516.992188 0)"/>
       <use xlink:href="#DejaVuSans-20" transform="translate(580.46875 0)"/>
       <use xlink:href="#DejaVuSans-64" transform="translate(612.255859 0)"/>
       <use xlink:href="#DejaVuSans-61" transform="translate(675.732422 0)"/>
       <use xlink:href="#DejaVuSans-74" transform="translate(737.011719 0)"/>
       <use xlink:href="#DejaVuSans-61" transform="translate(776.220703 0)"/>
      </g>
     </g>
    </g>
    <g id="xtick_12">
     <g id="line2d_23">
      <path d="M 921.491361 448.362563 
L 921.491361 22.318125 
" clip-path="url(#p9f632c8317)" style="fill: none; stroke-dasharray: 1.85,0.8; stroke-dashoffset: 0; stroke: #808080; stroke-opacity: 0.2; stroke-width: 0.5"/>
     </g>
     <g id="line2d_24">
      <g>
       <use xlink:href="#ma1809d2d9d" x="921.491361" y="448.362563" style="fill: #ffffff; stroke: #ffffff; stroke-width: 0.8"/>
      </g>
     </g>
     <g id="text_12">
      <!-- all vitals -->
      <g style="fill: #ffffff" transform="translate(890.608473 490.147798) rotate(-45) scale(0.1 -0.1)">
       <use xlink:href="#DejaVuSans-61"/>
       <use xlink:href="#DejaVuSans-6c" transform="translate(61.279297 0)"/>
       <use xlink:href="#DejaVuSans-6c" transform="translate(89.0625 0)"/>
       <use xlink:href="#DejaVuSans-20" transform="translate(116.845703 0)"/>
       <use xlink:href="#DejaVuSans-76" transform="translate(148.632812 0)"/>
       <use xlink:href="#DejaVuSans-69" transform="translate(207.8125 0)"/>
       <use xlink:href="#DejaVuSans-74" transform="translate(235.595703 0)"/>
       <use xlink:href="#DejaVuSans-61" transform="translate(274.804688 0)"/>
       <use xlink:href="#DejaVuSans-6c" transform="translate(336.083984 0)"/>
       <use xlink:href="#DejaVuSans-73" transform="translate(363.867188 0)"/>
      </g>
     </g>
    </g>
    <g id="text_13">
     <!-- Filter Name -->
     <g style="fill: #ffffff" transform="translate(493.991719 557.815383) scale(0.1 -0.1)">
      <defs>
       <path id="DejaVuSans-46" d="M 628 4666 
L 3309 4666 
L 3309 4134 
L 1259 4134 
L 1259 2759 
L 3109 2759 
L 3109 2228 
L 1259 2228 
L 1259 0 
L 628 0 
L 628 4666 
z
" transform="scale(0.015625)"/>
       <path id="DejaVuSans-4e" d="M 628 4666 
L 1478 4666 
L 3547 763 
L 3547 4666 
L 4159 4666 
L 4159 0 
L 3309 0 
L 1241 3903 
L 1241 0 
L 628 0 
L 628 4666 
z
" transform="scale(0.015625)"/>
      </defs>
      <use xlink:href="#DejaVuSans-46"/>
      <use xlink:href="#DejaVuSans-69" transform="translate(50.269531 0)"/>
      <use xlink:href="#DejaVuSans-6c" transform="translate(78.052734 0)"/>
      <use xlink:href="#DejaVuSans-74" transform="translate(105.835938 0)"/>
      <use xlink:href="#DejaVuSans-65" transform="translate(145.044922 0)"/>
      <use xlink:href="#DejaVuSans-72" transform="translate(206.568359 0)"/>
      <use xlink:href="#DejaVuSans-20" transform="translate(247.681641 0)"/>
      <use xlink:href="#DejaVuSans-4e" transform="translate(279.46875 0)"/>
      <use xlink:href="#DejaVuSans-61" transform="translate(354.273438 0)"/>
      <use xlink:href="#DejaVuSans-6d" transform="translate(415.552734 0)"/>
      <use xlink:href="#DejaVuSans-65" transform="translate(512.964844 0)"/>
     </g>
    </g>
   </g>
   <g id="matplotlib.axis_2">
    <g id="ytick_1">
     <g id="line2d_25">
      <path d="M 52.160938 406.899376 
L 993.270938 406.899376 
" clip-path="url(#p9f632c8317)" style="fill: none; stroke-dasharray: 1.85,0.8; stroke-dashoffset: 0; stroke: #808080; stroke-opacity: 0.2; stroke-width: 0.5"/>
     </g>
     <g id="line2d_26">
      <defs>
       <path id="mfc98fd194a" d="M 0 0 
L -3.5 0 
" style="stroke: #ffffff; stroke-width: 0.8"/>
      </defs>
      <g>
       <use xlink:href="#mfc98fd194a" x="52.160938" y="406.899376" style="fill: #ffffff; stroke: #ffffff; stroke-width: 0.8"/>
      </g>
     </g>
     <g id="text_14">
      <!-- −1.0 -->
      <g style="fill: #ffffff" transform="translate(20.878125 410.698595) scale(0.1 -0.1)">
       <defs>
        <path id="DejaVuSans-2212" d="M 678 2272 
L 4684 2272 
L 4684 1741 
L 678 1741 
L 678 2272 
z
" transform="scale(0.015625)"/>
        <path id="DejaVuSans-31" d="M 794 531 
L 1825 531 
L 1825 4091 
L 703 3866 
L 703 4441 
L 1819 4666 
L 2450 4666 
L 2450 531 
L 3481 531 
L 3481 0 
L 794 0 
L 794 531 
z
" transform="scale(0.015625)"/>
        <path id="DejaVuSans-2e" d="M 684 794 
L 1344 794 
L 1344 0 
L 684 0 
L 684 794 
z
" transform="scale(0.015625)"/>
        <path id="DejaVuSans-30" d="M 2034 4250 
Q 1547 4250 1301 3770 
Q 1056 3291 1056 2328 
Q 1056 1369 1301 889 
Q 1547 409 2034 409 
Q 2525 409 2770 889 
Q 3016 1369 3016 2328 
Q 3016 3291 2770 3770 
Q 2525 4250 2034 4250 
z
M 2034 4750 
Q 2819 4750 3233 4129 
Q 3647 3509 3647 2328 
Q 3647 1150 3233 529 
Q 2819 -91 2034 -91 
Q 1250 -91 836 529 
Q 422 1150 422 2328 
Q 422 3509 836 4129 
Q 1250 4750 2034 4750 
z
" transform="scale(0.015625)"/>
       </defs>
       <use xlink:href="#DejaVuSans-2212"/>
       <use xlink:href="#DejaVuSans-31" transform="translate(83.789062 0)"/>
       <use xlink:href="#DejaVuSans-2e" transform="translate(147.412109 0)"/>
       <use xlink:href="#DejaVuSans-30" transform="translate(179.199219 0)"/>
      </g>
     </g>
    </g>
    <g id="ytick_2">
     <g id="line2d_27">
      <path d="M 52.160938 345.755544 
L 993.270938 345.755544 
" clip-path="url(#p9f632c8317)" style="fill: none; stroke-dasharray: 1.85,0.8; stroke-dashoffset: 0; stroke: #808080; stroke-opacity: 0.2; stroke-width: 0.5"/>
     </g>
     <g id="line2d_28">
      <g>
       <use xlink:href="#mfc98fd194a" x="52.160938" y="345.755544" style="fill: #ffffff; stroke: #ffffff; stroke-width: 0.8"/>
      </g>
     </g>
     <g id="text_15">
      <!-- −0.8 -->
      <g style="fill: #ffffff" transform="translate(20.878125 349.554763) scale(0.1 -0.1)">
       <defs>
        <path id="DejaVuSans-38" d="M 2034 2216 
Q 1584 2216 1326 1975 
Q 1069 1734 1069 1313 
Q 1069 891 1326 650 
Q 1584 409 2034 409 
Q 2484 409 2743 651 
Q 3003 894 3003 1313 
Q 3003 1734 2745 1975 
Q 2488 2216 2034 2216 
z
M 1403 2484 
Q 997 2584 770 2862 
Q 544 3141 544 3541 
Q 544 4100 942 4425 
Q 1341 4750 2034 4750 
Q 2731 4750 3128 4425 
Q 3525 4100 3525 3541 
Q 3525 3141 3298 2862 
Q 3072 2584 2669 2484 
Q 3125 2378 3379 2068 
Q 3634 1759 3634 1313 
Q 3634 634 3220 271 
Q 2806 -91 2034 -91 
Q 1263 -91 848 271 
Q 434 634 434 1313 
Q 434 1759 690 2068 
Q 947 2378 1403 2484 
z
M 1172 3481 
Q 1172 3119 1398 2916 
Q 1625 2713 2034 2713 
Q 2441 2713 2670 2916 
Q 2900 3119 2900 3481 
Q 2900 3844 2670 4047 
Q 2441 4250 2034 4250 
Q 1625 4250 1398 4047 
Q 1172 3844 1172 3481 
z
" transform="scale(0.015625)"/>
       </defs>
       <use xlink:href="#DejaVuSans-2212"/>
       <use xlink:href="#DejaVuSans-30" transform="translate(83.789062 0)"/>
       <use xlink:href="#DejaVuSans-2e" transform="translate(147.412109 0)"/>
       <use xlink:href="#DejaVuSans-38" transform="translate(179.199219 0)"/>
      </g>
     </g>
    </g>
    <g id="ytick_3">
     <g id="line2d_29">
      <path d="M 52.160938 284.611712 
L 993.270938 284.611712 
" clip-path="url(#p9f632c8317)" style="fill: none; stroke-dasharray: 1.85,0.8; stroke-dashoffset: 0; stroke: #808080; stroke-opacity: 0.2; stroke-width: 0.5"/>
     </g>
     <g id="line2d_30">
      <g>
       <use xlink:href="#mfc98fd194a" x="52.160938" y="284.611712" style="fill: #ffffff; stroke: #ffffff; stroke-width: 0.8"/>
      </g>
     </g>
     <g id="text_16">
      <!-- −0.6 -->
      <g style="fill: #ffffff" transform="translate(20.878125 288.41093) scale(0.1 -0.1)">
       <defs>
        <path id="DejaVuSans-36" d="M 2113 2584 
Q 1688 2584 1439 2293 
Q 1191 2003 1191 1497 
Q 1191 994 1439 701 
Q 1688 409 2113 409 
Q 2538 409 2786 701 
Q 3034 994 3034 1497 
Q 3034 2003 2786 2293 
Q 2538 2584 2113 2584 
z
M 3366 4563 
L 3366 3988 
Q 3128 4100 2886 4159 
Q 2644 4219 2406 4219 
Q 1781 4219 1451 3797 
Q 1122 3375 1075 2522 
Q 1259 2794 1537 2939 
Q 1816 3084 2150 3084 
Q 2853 3084 3261 2657 
Q 3669 2231 3669 1497 
Q 3669 778 3244 343 
Q 2819 -91 2113 -91 
Q 1303 -91 875 529 
Q 447 1150 447 2328 
Q 447 3434 972 4092 
Q 1497 4750 2381 4750 
Q 2619 4750 2861 4703 
Q 3103 4656 3366 4563 
z
" transform="scale(0.015625)"/>
       </defs>
       <use xlink:href="#DejaVuSans-2212"/>
       <use xlink:href="#DejaVuSans-30" transform="translate(83.789062 0)"/>
       <use xlink:href="#DejaVuSans-2e" transform="translate(147.412109 0)"/>
       <use xlink:href="#DejaVuSans-36" transform="translate(179.199219 0)"/>
      </g>
     </g>
    </g>
    <g id="ytick_4">
     <g id="line2d_31">
      <path d="M 52.160938 223.46788 
L 993.270938 223.46788 
" clip-path="url(#p9f632c8317)" style="fill: none; stroke-dasharray: 1.85,0.8; stroke-dashoffset: 0; stroke: #808080; stroke-opacity: 0.2; stroke-width: 0.5"/>
     </g>
     <g id="line2d_32">
      <g>
       <use xlink:href="#mfc98fd194a" x="52.160938" y="223.46788" style="fill: #ffffff; stroke: #ffffff; stroke-width: 0.8"/>
      </g>
     </g>
     <g id="text_17">
      <!-- −0.4 -->
      <g style="fill: #ffffff" transform="translate(20.878125 227.267098) scale(0.1 -0.1)">
       <defs>
        <path id="DejaVuSans-34" d="M 2419 4116 
L 825 1625 
L 2419 1625 
L 2419 4116 
z
M 2253 4666 
L 3047 4666 
L 3047 1625 
L 3713 1625 
L 3713 1100 
L 3047 1100 
L 3047 0 
L 2419 0 
L 2419 1100 
L 313 1100 
L 313 1709 
L 2253 4666 
z
" transform="scale(0.015625)"/>
       </defs>
       <use xlink:href="#DejaVuSans-2212"/>
       <use xlink:href="#DejaVuSans-30" transform="translate(83.789062 0)"/>
       <use xlink:href="#DejaVuSans-2e" transform="translate(147.412109 0)"/>
       <use xlink:href="#DejaVuSans-34" transform="translate(179.199219 0)"/>
      </g>
     </g>
    </g>
    <g id="ytick_5">
     <g id="line2d_33">
      <path d="M 52.160938 162.324047 
L 993.270938 162.324047 
" clip-path="url(#p9f632c8317)" style="fill: none; stroke-dasharray: 1.85,0.8; stroke-dashoffset: 0; stroke: #808080; stroke-opacity: 0.2; stroke-width: 0.5"/>
     </g>
     <g id="line2d_34">
      <g>
       <use xlink:href="#mfc98fd194a" x="52.160938" y="162.324047" style="fill: #ffffff; stroke: #ffffff; stroke-width: 0.8"/>
      </g>
     </g>
     <g id="text_18">
      <!-- −0.2 -->
      <g style="fill: #ffffff" transform="translate(20.878125 166.123266) scale(0.1 -0.1)">
       <defs>
        <path id="DejaVuSans-32" d="M 1228 531 
L 3431 531 
L 3431 0 
L 469 0 
L 469 531 
Q 828 903 1448 1529 
Q 2069 2156 2228 2338 
Q 2531 2678 2651 2914 
Q 2772 3150 2772 3378 
Q 2772 3750 2511 3984 
Q 2250 4219 1831 4219 
Q 1534 4219 1204 4116 
Q 875 4013 500 3803 
L 500 4441 
Q 881 4594 1212 4672 
Q 1544 4750 1819 4750 
Q 2544 4750 2975 4387 
Q 3406 4025 3406 3419 
Q 3406 3131 3298 2873 
Q 3191 2616 2906 2266 
Q 2828 2175 2409 1742 
Q 1991 1309 1228 531 
z
" transform="scale(0.015625)"/>
       </defs>
       <use xlink:href="#DejaVuSans-2212"/>
       <use xlink:href="#DejaVuSans-30" transform="translate(83.789062 0)"/>
       <use xlink:href="#DejaVuSans-2e" transform="translate(147.412109 0)"/>
       <use xlink:href="#DejaVuSans-32" transform="translate(179.199219 0)"/>
      </g>
     </g>
    </g>
    <g id="ytick_6">
     <g id="line2d_35">
      <path d="M 52.160938 101.180215 
L 993.270938 101.180215 
" clip-path="url(#p9f632c8317)" style="fill: none; stroke-dasharray: 1.85,0.8; stroke-dashoffset: 0; stroke: #808080; stroke-opacity: 0.2; stroke-width: 0.5"/>
     </g>
     <g id="line2d_36">
      <g>
       <use xlink:href="#mfc98fd194a" x="52.160938" y="101.180215" style="fill: #ffffff; stroke: #ffffff; stroke-width: 0.8"/>
      </g>
     </g>
     <g id="text_19">
      <!-- 0.0 -->
      <g style="fill: #ffffff" transform="translate(29.257813 104.979434) scale(0.1 -0.1)">
       <use xlink:href="#DejaVuSans-30"/>
       <use xlink:href="#DejaVuSans-2e" transform="translate(63.623047 0)"/>
       <use xlink:href="#DejaVuSans-30" transform="translate(95.410156 0)"/>
      </g>
     </g>
    </g>
    <g id="ytick_7">
     <g id="line2d_37">
      <path d="M 52.160938 40.036383 
L 993.270938 40.036383 
" clip-path="url(#p9f632c8317)" style="fill: none; stroke-dasharray: 1.85,0.8; stroke-dashoffset: 0; stroke: #808080; stroke-opacity: 0.2; stroke-width: 0.5"/>
     </g>
     <g id="line2d_38">
      <g>
       <use xlink:href="#mfc98fd194a" x="52.160938" y="40.036383" style="fill: #ffffff; stroke: #ffffff; stroke-width: 0.8"/>
      </g>
     </g>
     <g id="text_20">
      <!-- 0.2 -->
      <g style="fill: #ffffff" transform="translate(29.257813 43.835602) scale(0.1 -0.1)">
       <use xlink:href="#DejaVuSans-30"/>
       <use xlink:href="#DejaVuSans-2e" transform="translate(63.623047 0)"/>
       <use xlink:href="#DejaVuSans-32" transform="translate(95.410156 0)"/>
      </g>
     </g>
    </g>
    <g id="text_21">
     <!-- Testing Accuracy Deviation from Baseline -->
     <g style="fill: #ffffff" transform="translate(14.798438 338.8505) rotate(-90) scale(0.1 -0.1)">
      <defs>
       <path id="DejaVuSans-54" d="M -19 4666 
L 3928 4666 
L 3928 4134 
L 2272 4134 
L 2272 0 
L 1638 0 
L 1638 4134 
L -19 4134 
L -19 4666 
z
" transform="scale(0.015625)"/>
       <path id="DejaVuSans-41" d="M 2188 4044 
L 1331 1722 
L 3047 1722 
L 2188 4044 
z
M 1831 4666 
L 2547 4666 
L 4325 0 
L 3669 0 
L 3244 1197 
L 1141 1197 
L 716 0 
L 50 0 
L 1831 4666 
z
" transform="scale(0.015625)"/>
       <path id="DejaVuSans-44" d="M 1259 4147 
L 1259 519 
L 2022 519 
Q 2988 519 3436 956 
Q 3884 1394 3884 2338 
Q 3884 3275 3436 3711 
Q 2988 4147 2022 4147 
L 1259 4147 
z
M 628 4666 
L 1925 4666 
Q 3281 4666 3915 4102 
Q 4550 3538 4550 2338 
Q 4550 1131 3912 565 
Q 3275 0 1925 0 
L 628 0 
L 628 4666 
z
" transform="scale(0.015625)"/>
       <path id="DejaVuSans-42" d="M 1259 2228 
L 1259 519 
L 2272 519 
Q 2781 519 3026 730 
Q 3272 941 3272 1375 
Q 3272 1813 3026 2020 
Q 2781 2228 2272 2228 
L 1259 2228 
z
M 1259 4147 
L 1259 2741 
L 2194 2741 
Q 2656 2741 2882 2914 
Q 3109 3088 3109 3444 
Q 3109 3797 2882 3972 
Q 2656 4147 2194 4147 
L 1259 4147 
z
M 628 4666 
L 2241 4666 
Q 2963 4666 3353 4366 
Q 3744 4066 3744 3513 
Q 3744 3084 3544 2831 
Q 3344 2578 2956 2516 
Q 3422 2416 3680 2098 
Q 3938 1781 3938 1306 
Q 3938 681 3513 340 
Q 3088 0 2303 0 
L 628 0 
L 628 4666 
z
" transform="scale(0.015625)"/>
      </defs>
      <use xlink:href="#DejaVuSans-54"/>
      <use xlink:href="#DejaVuSans-65" transform="translate(44.083984 0)"/>
      <use xlink:href="#DejaVuSans-73" transform="translate(105.607422 0)"/>
      <use xlink:href="#DejaVuSans-74" transform="translate(157.707031 0)"/>
      <use xlink:href="#DejaVuSans-69" transform="translate(196.916016 0)"/>
      <use xlink:href="#DejaVuSans-6e" transform="translate(224.699219 0)"/>
      <use xlink:href="#DejaVuSans-67" transform="translate(288.078125 0)"/>
      <use xlink:href="#DejaVuSans-20" transform="translate(351.554688 0)"/>
      <use xlink:href="#DejaVuSans-41" transform="translate(383.341797 0)"/>
      <use xlink:href="#DejaVuSans-63" transform="translate(450 0)"/>
      <use xlink:href="#DejaVuSans-63" transform="translate(504.980469 0)"/>
      <use xlink:href="#DejaVuSans-75" transform="translate(559.960938 0)"/>
      <use xlink:href="#DejaVuSans-72" transform="translate(623.339844 0)"/>
      <use xlink:href="#DejaVuSans-61" transform="translate(664.453125 0)"/>
      <use xlink:href="#DejaVuSans-63" transform="translate(725.732422 0)"/>
      <use xlink:href="#DejaVuSans-79" transform="translate(780.712891 0)"/>
      <use xlink:href="#DejaVuSans-20" transform="translate(839.892578 0)"/>
      <use xlink:href="#DejaVuSans-44" transform="translate(871.679688 0)"/>
      <use xlink:href="#DejaVuSans-65" transform="translate(948.681641 0)"/>
      <use xlink:href="#DejaVuSans-76" transform="translate(1010.205078 0)"/>
      <use xlink:href="#DejaVuSans-69" transform="translate(1069.384766 0)"/>
      <use xlink:href="#DejaVuSans-61" transform="translate(1097.167969 0)"/>
      <use xlink:href="#DejaVuSans-74" transform="translate(1158.447266 0)"/>
      <use xlink:href="#DejaVuSans-69" transform="translate(1197.65625 0)"/>
      <use xlink:href="#DejaVuSans-6f" transform="translate(1225.439453 0)"/>
      <use xlink:href="#DejaVuSans-6e" transform="translate(1286.621094 0)"/>
      <use xlink:href="#DejaVuSans-20" transform="translate(1350 0)"/>
      <use xlink:href="#DejaVuSans-66" transform="translate(1381.787109 0)"/>
      <use xlink:href="#DejaVuSans-72" transform="translate(1416.992188 0)"/>
      <use xlink:href="#DejaVuSans-6f" transform="translate(1455.855469 0)"/>
      <use xlink:href="#DejaVuSans-6d" transform="translate(1517.037109 0)"/>
      <use xlink:href="#DejaVuSans-20" transform="translate(1614.449219 0)"/>
      <use xlink:href="#DejaVuSans-42" transform="translate(1646.236328 0)"/>
      <use xlink:href="#DejaVuSans-61" transform="translate(1714.839844 0)"/>
      <use xlink:href="#DejaVuSans-73" transform="translate(1776.119141 0)"/>
      <use xlink:href="#DejaVuSans-65" transform="translate(1828.21875 0)"/>
      <use xlink:href="#DejaVuSans-6c" transform="translate(1889.742188 0)"/>
      <use xlink:href="#DejaVuSans-69" transform="translate(1917.525391 0)"/>
      <use xlink:href="#DejaVuSans-6e" transform="translate(1945.308594 0)"/>
      <use xlink:href="#DejaVuSans-65" transform="translate(2008.6875 0)"/>
     </g>
    </g>
   </g>
   <g id="line2d_39">
    <path d="M 413.959004 448.362563 
L 413.959004 22.318125 
" clip-path="url(#p9f632c8317)" style="fill: none; stroke: #3b8465; stroke-opacity: 0.3; stroke-width: 0.5; stroke-linecap: square"/>
   </g>
   <g id="line2d_40">
    <path d="M 486.463626 448.362563 
L 486.463626 22.318125 
" clip-path="url(#p9f632c8317)" style="fill: none; stroke: #3b8465; stroke-opacity: 0.3; stroke-width: 0.5; stroke-linecap: square"/>
   </g>
   <g id="line2d_41">
    <path d="M 558.968249 448.362563 
L 558.968249 22.318125 
" clip-path="url(#p9f632c8317)" style="fill: none; stroke: #3b8465; stroke-opacity: 0.3; stroke-width: 0.5; stroke-linecap: square"/>
   </g>
   <g id="line2d_42">
    <path d="M 631.472871 448.362563 
L 631.472871 22.318125 
" clip-path="url(#p9f632c8317)" style="fill: none; stroke: #3b8465; stroke-opacity: 0.3; stroke-width: 0.5; stroke-linecap: square"/>
   </g>
   <g id="line2d_43">
    <path d="M 703.977494 448.362563 
L 703.977494 22.318125 
" clip-path="url(#p9f632c8317)" style="fill: none; stroke: #3b8465; stroke-opacity: 0.3; stroke-width: 0.5; stroke-linecap: square"/>
   </g>
   <g id="line2d_44">
    <path d="M 921.491361 448.362563 
L 921.491361 22.318125 
" clip-path="url(#p9f632c8317)" style="fill: none; stroke: #3b8465; stroke-opacity: 0.3; stroke-width: 0.5; stroke-linecap: square"/>
   </g>
   <g id="line2d_45">
    <path d="M 123.940514 448.362563 
L 123.940514 22.318125 
" clip-path="url(#p9f632c8317)" style="fill: none; stroke: #bd3140; stroke-opacity: 0.3; stroke-width: 0.5; stroke-linecap: square"/>
   </g>
   <g id="line2d_46">
    <path d="M 196.445136 448.362563 
L 196.445136 22.318125 
" clip-path="url(#p9f632c8317)" style="fill: none; stroke: #bd3140; stroke-opacity: 0.3; stroke-width: 0.5; stroke-linecap: square"/>
   </g>
   <g id="line2d_47">
    <path d="M 268.949759 448.362563 
L 268.949759 22.318125 
" clip-path="url(#p9f632c8317)" style="fill: none; stroke: #bd3140; stroke-opacity: 0.3; stroke-width: 0.5; stroke-linecap: square"/>
   </g>
   <g id="line2d_48">
    <path d="M 341.454381 448.362563 
L 341.454381 22.318125 
" clip-path="url(#p9f632c8317)" style="fill: none; stroke: #bd3140; stroke-opacity: 0.3; stroke-width: 0.5; stroke-linecap: square"/>
   </g>
   <g id="line2d_49">
    <path d="M 776.482116 448.362563 
L 776.482116 22.318125 
" clip-path="url(#p9f632c8317)" style="fill: none; stroke: #bd3140; stroke-opacity: 0.3; stroke-width: 0.5; stroke-linecap: square"/>
   </g>
   <g id="line2d_50">
    <path d="M 848.986739 448.362563 
L 848.986739 22.318125 
" clip-path="url(#p9f632c8317)" style="fill: none; stroke: #bd3140; stroke-opacity: 0.3; stroke-width: 0.5; stroke-linecap: square"/>
   </g>
   <g id="line2d_51">
    <path d="M 52.160938 101.180215 
L 993.270938 101.180215 
" clip-path="url(#p9f632c8317)" style="fill: none; stroke: #ffffff; stroke-opacity: 0.5; stroke-width: 0.8; stroke-linecap: square"/>
   </g>
   <g id="patch_3">
    <path d="M 52.160938 448.362563 
L 52.160938 22.318125 
" style="fill: none; stroke: #ffffff; stroke-width: 0.8; stroke-linejoin: miter; stroke-linecap: square"/>
   </g>
   <g id="patch_4">
    <path d="M 52.160938 448.362563 
L 993.270938 448.362563 
" style="fill: none; stroke: #ffffff; stroke-width: 0.8; stroke-linejoin: miter; stroke-linecap: square"/>
   </g>
   <g id="patch_5">
    <path d="M 94.938665 101.180215 
L 152.942363 101.180215 
L 152.942363 101.661689 
L 94.938665 101.661689 
z
" clip-path="url(#p9f632c8317)" style="fill: #bd3140"/>
   </g>
   <g id="patch_6">
    <path d="M 167.443287 101.180215 
L 225.446985 101.180215 
L 225.446985 102.417104 
L 167.443287 102.417104 
z
" clip-path="url(#p9f632c8317)" style="fill: #bd3140"/>
   </g>
   <g id="patch_7">
    <path d="M 239.94791 101.180215 
L 297.951608 101.180215 
L 297.951608 102.508418 
L 239.94791 102.508418 
z
" clip-path="url(#p9f632c8317)" style="fill: #bd3140"/>
   </g>
   <g id="patch_8">
    <path d="M 312.452532 101.180215 
L 370.45623 101.180215 
L 370.45623 101.578676 
L 312.452532 101.578676 
z
" clip-path="url(#p9f632c8317)" style="fill: #bd3140"/>
   </g>
   <g id="patch_9">
    <path d="M 384.957155 101.180215 
L 442.960853 101.180215 
L 442.960853 100.374992 
L 384.957155 100.374992 
z
" clip-path="url(#p9f632c8317)" style="fill: #3b8465"/>
   </g>
   <g id="patch_10">
    <path d="M 457.461777 101.180215 
L 515.465475 101.180215 
L 515.465475 98.913969 
L 457.461777 98.913969 
z
" clip-path="url(#p9f632c8317)" style="fill: #3b8465"/>
   </g>
   <g id="patch_11">
    <path d="M 529.9664 101.180215 
L 587.970098 101.180215 
L 587.970098 99.528263 
L 529.9664 99.528263 
z
" clip-path="url(#p9f632c8317)" style="fill: #3b8465"/>
   </g>
   <g id="patch_12">
    <path d="M 602.471022 101.180215 
L 660.47472 101.180215 
L 660.47472 100.75685 
L 602.471022 100.75685 
z
" clip-path="url(#p9f632c8317)" style="fill: #3b8465"/>
   </g>
   <g id="patch_13">
    <path d="M 674.975645 101.180215 
L 732.979343 101.180215 
L 732.979343 93.325531 
L 674.975645 93.325531 
z
" clip-path="url(#p9f632c8317)" style="fill: #3b8465"/>
   </g>
   <g id="patch_14">
    <path d="M 747.480267 101.180215 
L 805.483965 101.180215 
L 805.483965 181.0355 
L 747.480267 181.0355 
z
" clip-path="url(#p9f632c8317)" style="fill: #bd3140"/>
   </g>
   <g id="patch_15">
    <path d="M 819.98489 101.180215 
L 877.988588 101.180215 
L 877.988588 377.355157 
L 819.98489 377.355157 
z
" clip-path="url(#p9f632c8317)" style="fill: #bd3140"/>
   </g>
   <g id="patch_16">
    <path d="M 892.489512 101.180215 
L 950.49321 101.180215 
L 950.49321 100.350088 
L 892.489512 100.350088 
z
" clip-path="url(#p9f632c8317)" style="fill: #3b8465"/>
   </g>
   <g id="text_22">
    <!-- -0.0016 -->
    <g style="fill: #a0a0a0" transform="translate(104.708639 108.653142) scale(0.09 -0.09)">
     <defs>
      <path id="DejaVuSans-Bold-2d" d="M 347 2297 
L 2309 2297 
L 2309 1388 
L 347 1388 
L 347 2297 
z
" transform="scale(0.015625)"/>
      <path id="DejaVuSans-Bold-30" d="M 2944 2338 
Q 2944 3213 2780 3570 
Q 2616 3928 2228 3928 
Q 1841 3928 1675 3570 
Q 1509 3213 1509 2338 
Q 1509 1453 1675 1090 
Q 1841 728 2228 728 
Q 2613 728 2778 1090 
Q 2944 1453 2944 2338 
z
M 4147 2328 
Q 4147 1169 3647 539 
Q 3147 -91 2228 -91 
Q 1306 -91 806 539 
Q 306 1169 306 2328 
Q 306 3491 806 4120 
Q 1306 4750 2228 4750 
Q 3147 4750 3647 4120 
Q 4147 3491 4147 2328 
z
" transform="scale(0.015625)"/>
      <path id="DejaVuSans-Bold-2e" d="M 653 1209 
L 1778 1209 
L 1778 0 
L 653 0 
L 653 1209 
z
" transform="scale(0.015625)"/>
      <path id="DejaVuSans-Bold-31" d="M 750 831 
L 1813 831 
L 1813 3847 
L 722 3622 
L 722 4441 
L 1806 4666 
L 2950 4666 
L 2950 831 
L 4013 831 
L 4013 0 
L 750 0 
L 750 831 
z
" transform="scale(0.015625)"/>
      <path id="DejaVuSans-Bold-36" d="M 2316 2303 
Q 2000 2303 1842 2098 
Q 1684 1894 1684 1484 
Q 1684 1075 1842 870 
Q 2000 666 2316 666 
Q 2634 666 2792 870 
Q 2950 1075 2950 1484 
Q 2950 1894 2792 2098 
Q 2634 2303 2316 2303 
z
M 3803 4544 
L 3803 3681 
Q 3506 3822 3243 3889 
Q 2981 3956 2731 3956 
Q 2194 3956 1894 3657 
Q 1594 3359 1544 2772 
Q 1750 2925 1990 3001 
Q 2231 3078 2516 3078 
Q 3231 3078 3670 2659 
Q 4109 2241 4109 1563 
Q 4109 813 3618 361 
Q 3128 -91 2303 -91 
Q 1394 -91 895 523 
Q 397 1138 397 2266 
Q 397 3422 980 4083 
Q 1563 4744 2578 4744 
Q 2900 4744 3203 4694 
Q 3506 4644 3803 4544 
z
" transform="scale(0.015625)"/>
     </defs>
     <use xlink:href="#DejaVuSans-Bold-2d"/>
     <use xlink:href="#DejaVuSans-Bold-30" transform="translate(41.503906 0)"/>
     <use xlink:href="#DejaVuSans-Bold-2e" transform="translate(111.083984 0)"/>
     <use xlink:href="#DejaVuSans-Bold-30" transform="translate(149.072266 0)"/>
     <use xlink:href="#DejaVuSans-Bold-30" transform="translate(218.652344 0)"/>
     <use xlink:href="#DejaVuSans-Bold-31" transform="translate(288.232422 0)"/>
     <use xlink:href="#DejaVuSans-Bold-36" transform="translate(357.8125 0)"/>
    </g>
   </g>
   <g id="text_23">
    <!-- -0.0040 -->
    <g style="fill: #a0a0a0" transform="translate(177.213261 109.408558) scale(0.09 -0.09)">
     <defs>
      <path id="DejaVuSans-Bold-34" d="M 2356 3675 
L 1038 1722 
L 2356 1722 
L 2356 3675 
z
M 2156 4666 
L 3494 4666 
L 3494 1722 
L 4159 1722 
L 4159 850 
L 3494 850 
L 3494 0 
L 2356 0 
L 2356 850 
L 288 850 
L 288 1881 
L 2156 4666 
z
" transform="scale(0.015625)"/>
     </defs>
     <use xlink:href="#DejaVuSans-Bold-2d"/>
     <use xlink:href="#DejaVuSans-Bold-30" transform="translate(41.503906 0)"/>
     <use xlink:href="#DejaVuSans-Bold-2e" transform="translate(111.083984 0)"/>
     <use xlink:href="#DejaVuSans-Bold-30" transform="translate(149.072266 0)"/>
     <use xlink:href="#DejaVuSans-Bold-30" transform="translate(218.652344 0)"/>
     <use xlink:href="#DejaVuSans-Bold-34" transform="translate(288.232422 0)"/>
     <use xlink:href="#DejaVuSans-Bold-30" transform="translate(357.8125 0)"/>
    </g>
   </g>
   <g id="text_24">
    <!-- -0.0043 -->
    <g style="fill: #a0a0a0" transform="translate(249.717884 109.499872) scale(0.09 -0.09)">
     <defs>
      <path id="DejaVuSans-Bold-33" d="M 2981 2516 
Q 3453 2394 3698 2092 
Q 3944 1791 3944 1325 
Q 3944 631 3412 270 
Q 2881 -91 1863 -91 
Q 1503 -91 1142 -33 
Q 781 25 428 141 
L 428 1069 
Q 766 900 1098 814 
Q 1431 728 1753 728 
Q 2231 728 2486 893 
Q 2741 1059 2741 1369 
Q 2741 1688 2480 1852 
Q 2219 2016 1709 2016 
L 1228 2016 
L 1228 2791 
L 1734 2791 
Q 2188 2791 2409 2933 
Q 2631 3075 2631 3366 
Q 2631 3634 2415 3781 
Q 2200 3928 1806 3928 
Q 1516 3928 1219 3862 
Q 922 3797 628 3669 
L 628 4550 
Q 984 4650 1334 4700 
Q 1684 4750 2022 4750 
Q 2931 4750 3382 4451 
Q 3834 4153 3834 3553 
Q 3834 3144 3618 2883 
Q 3403 2622 2981 2516 
z
" transform="scale(0.015625)"/>
     </defs>
     <use xlink:href="#DejaVuSans-Bold-2d"/>
     <use xlink:href="#DejaVuSans-Bold-30" transform="translate(41.503906 0)"/>
     <use xlink:href="#DejaVuSans-Bold-2e" transform="translate(111.083984 0)"/>
     <use xlink:href="#DejaVuSans-Bold-30" transform="translate(149.072266 0)"/>
     <use xlink:href="#DejaVuSans-Bold-30" transform="translate(218.652344 0)"/>
     <use xlink:href="#DejaVuSans-Bold-34" transform="translate(288.232422 0)"/>
     <use xlink:href="#DejaVuSans-Bold-33" transform="translate(357.8125 0)"/>
    </g>
   </g>
   <g id="text_25">
    <!-- -0.0013 -->
    <g style="fill: #a0a0a0" transform="translate(322.222506 108.57013) scale(0.09 -0.09)">
     <use xlink:href="#DejaVuSans-Bold-2d"/>
     <use xlink:href="#DejaVuSans-Bold-30" transform="translate(41.503906 0)"/>
     <use xlink:href="#DejaVuSans-Bold-2e" transform="translate(111.083984 0)"/>
     <use xlink:href="#DejaVuSans-Bold-30" transform="translate(149.072266 0)"/>
     <use xlink:href="#DejaVuSans-Bold-30" transform="translate(218.652344 0)"/>
     <use xlink:href="#DejaVuSans-Bold-31" transform="translate(288.232422 0)"/>
     <use xlink:href="#DejaVuSans-Bold-33" transform="translate(357.8125 0)"/>
    </g>
   </g>
   <g id="text_26">
    <!-- +0.0026 -->
    <g style="fill: #a0a0a0" transform="translate(392.823769 98.350414) scale(0.09 -0.09)">
     <defs>
      <path id="DejaVuSans-Bold-2b" d="M 3053 4013 
L 3053 2375 
L 4684 2375 
L 4684 1638 
L 3053 1638 
L 3053 0 
L 2309 0 
L 2309 1638 
L 678 1638 
L 678 2375 
L 2309 2375 
L 2309 4013 
L 3053 4013 
z
" transform="scale(0.015625)"/>
      <path id="DejaVuSans-Bold-32" d="M 1844 884 
L 3897 884 
L 3897 0 
L 506 0 
L 506 884 
L 2209 2388 
Q 2438 2594 2547 2791 
Q 2656 2988 2656 3200 
Q 2656 3528 2436 3728 
Q 2216 3928 1850 3928 
Q 1569 3928 1234 3808 
Q 900 3688 519 3450 
L 519 4475 
Q 925 4609 1322 4679 
Q 1719 4750 2100 4750 
Q 2938 4750 3402 4381 
Q 3866 4013 3866 3353 
Q 3866 2972 3669 2642 
Q 3472 2313 2841 1759 
L 1844 884 
z
" transform="scale(0.015625)"/>
     </defs>
     <use xlink:href="#DejaVuSans-Bold-2b"/>
     <use xlink:href="#DejaVuSans-Bold-30" transform="translate(83.789062 0)"/>
     <use xlink:href="#DejaVuSans-Bold-2e" transform="translate(153.369141 0)"/>
     <use xlink:href="#DejaVuSans-Bold-30" transform="translate(191.357422 0)"/>
     <use xlink:href="#DejaVuSans-Bold-30" transform="translate(260.9375 0)"/>
     <use xlink:href="#DejaVuSans-Bold-32" transform="translate(330.517578 0)"/>
     <use xlink:href="#DejaVuSans-Bold-36" transform="translate(400.097656 0)"/>
    </g>
   </g>
   <g id="text_27">
    <!-- +0.0074 -->
    <g style="fill: #a0a0a0" transform="translate(465.328392 96.88939) scale(0.09 -0.09)">
     <defs>
      <path id="DejaVuSans-Bold-37" d="M 428 4666 
L 3944 4666 
L 3944 3988 
L 2125 0 
L 953 0 
L 2675 3781 
L 428 3781 
L 428 4666 
z
" transform="scale(0.015625)"/>
     </defs>
     <use xlink:href="#DejaVuSans-Bold-2b"/>
     <use xlink:href="#DejaVuSans-Bold-30" transform="translate(83.789062 0)"/>
     <use xlink:href="#DejaVuSans-Bold-2e" transform="translate(153.369141 0)"/>
     <use xlink:href="#DejaVuSans-Bold-30" transform="translate(191.357422 0)"/>
     <use xlink:href="#DejaVuSans-Bold-30" transform="translate(260.9375 0)"/>
     <use xlink:href="#DejaVuSans-Bold-37" transform="translate(330.517578 0)"/>
     <use xlink:href="#DejaVuSans-Bold-34" transform="translate(400.097656 0)"/>
    </g>
   </g>
   <g id="text_28">
    <!-- +0.0054 -->
    <g style="fill: #a0a0a0" transform="translate(537.833014 97.503684) scale(0.09 -0.09)">
     <defs>
      <path id="DejaVuSans-Bold-35" d="M 678 4666 
L 3669 4666 
L 3669 3781 
L 1638 3781 
L 1638 3059 
Q 1775 3097 1914 3117 
Q 2053 3138 2203 3138 
Q 3056 3138 3531 2711 
Q 4006 2284 4006 1522 
Q 4006 766 3489 337 
Q 2972 -91 2053 -91 
Q 1656 -91 1267 -14 
Q 878 63 494 219 
L 494 1166 
Q 875 947 1217 837 
Q 1559 728 1863 728 
Q 2300 728 2551 942 
Q 2803 1156 2803 1522 
Q 2803 1891 2551 2103 
Q 2300 2316 1863 2316 
Q 1603 2316 1309 2248 
Q 1016 2181 678 2041 
L 678 4666 
z
" transform="scale(0.015625)"/>
     </defs>
     <use xlink:href="#DejaVuSans-Bold-2b"/>
     <use xlink:href="#DejaVuSans-Bold-30" transform="translate(83.789062 0)"/>
     <use xlink:href="#DejaVuSans-Bold-2e" transform="translate(153.369141 0)"/>
     <use xlink:href="#DejaVuSans-Bold-30" transform="translate(191.357422 0)"/>
     <use xlink:href="#DejaVuSans-Bold-30" transform="translate(260.9375 0)"/>
     <use xlink:href="#DejaVuSans-Bold-35" transform="translate(330.517578 0)"/>
     <use xlink:href="#DejaVuSans-Bold-34" transform="translate(400.097656 0)"/>
    </g>
   </g>
   <g id="text_29">
    <!-- +0.0014 -->
    <g style="fill: #a0a0a0" transform="translate(610.337637 98.732272) scale(0.09 -0.09)">
     <use xlink:href="#DejaVuSans-Bold-2b"/>
     <use xlink:href="#DejaVuSans-Bold-30" transform="translate(83.789062 0)"/>
     <use xlink:href="#DejaVuSans-Bold-2e" transform="translate(153.369141 0)"/>
     <use xlink:href="#DejaVuSans-Bold-30" transform="translate(191.357422 0)"/>
     <use xlink:href="#DejaVuSans-Bold-30" transform="translate(260.9375 0)"/>
     <use xlink:href="#DejaVuSans-Bold-31" transform="translate(330.517578 0)"/>
     <use xlink:href="#DejaVuSans-Bold-34" transform="translate(400.097656 0)"/>
    </g>
   </g>
   <g id="text_30">
    <!-- +0.0257 -->
    <g style="fill: #a0a0a0" transform="translate(682.842259 91.300953) scale(0.09 -0.09)">
     <use xlink:href="#DejaVuSans-Bold-2b"/>
     <use xlink:href="#DejaVuSans-Bold-30" transform="translate(83.789062 0)"/>
     <use xlink:href="#DejaVuSans-Bold-2e" transform="translate(153.369141 0)"/>
     <use xlink:href="#DejaVuSans-Bold-30" transform="translate(191.357422 0)"/>
     <use xlink:href="#DejaVuSans-Bold-32" transform="translate(260.9375 0)"/>
     <use xlink:href="#DejaVuSans-Bold-35" transform="translate(330.517578 0)"/>
     <use xlink:href="#DejaVuSans-Bold-37" transform="translate(400.097656 0)"/>
    </g>
   </g>
   <g id="text_31">
    <!-- -0.2612 -->
    <g style="fill: #a0a0a0" transform="translate(757.250241 188.026953) scale(0.09 -0.09)">
     <use xlink:href="#DejaVuSans-Bold-2d"/>
     <use xlink:href="#DejaVuSans-Bold-30" transform="translate(41.503906 0)"/>
     <use xlink:href="#DejaVuSans-Bold-2e" transform="translate(111.083984 0)"/>
     <use xlink:href="#DejaVuSans-Bold-32" transform="translate(149.072266 0)"/>
     <use xlink:href="#DejaVuSans-Bold-36" transform="translate(218.652344 0)"/>
     <use xlink:href="#DejaVuSans-Bold-31" transform="translate(288.232422 0)"/>
     <use xlink:href="#DejaVuSans-Bold-32" transform="translate(357.8125 0)"/>
    </g>
   </g>
   <g id="text_32">
    <!-- -0.9034 -->
    <g style="fill: #a0a0a0" transform="translate(829.754864 384.34661) scale(0.09 -0.09)">
     <defs>
      <path id="DejaVuSans-Bold-39" d="M 641 103 
L 641 966 
Q 928 831 1190 764 
Q 1453 697 1709 697 
Q 2247 697 2547 995 
Q 2847 1294 2900 1881 
Q 2688 1725 2447 1647 
Q 2206 1569 1925 1569 
Q 1209 1569 770 1986 
Q 331 2403 331 3084 
Q 331 3838 820 4291 
Q 1309 4744 2131 4744 
Q 3044 4744 3544 4128 
Q 4044 3513 4044 2388 
Q 4044 1231 3459 570 
Q 2875 -91 1856 -91 
Q 1528 -91 1228 -42 
Q 928 6 641 103 
z
M 2125 2350 
Q 2441 2350 2600 2554 
Q 2759 2759 2759 3169 
Q 2759 3575 2600 3781 
Q 2441 3988 2125 3988 
Q 1809 3988 1650 3781 
Q 1491 3575 1491 3169 
Q 1491 2759 1650 2554 
Q 1809 2350 2125 2350 
z
" transform="scale(0.015625)"/>
     </defs>
     <use xlink:href="#DejaVuSans-Bold-2d"/>
     <use xlink:href="#DejaVuSans-Bold-30" transform="translate(41.503906 0)"/>
     <use xlink:href="#DejaVuSans-Bold-2e" transform="translate(111.083984 0)"/>
     <use xlink:href="#DejaVuSans-Bold-39" transform="translate(149.072266 0)"/>
     <use xlink:href="#DejaVuSans-Bold-30" transform="translate(218.652344 0)"/>
     <use xlink:href="#DejaVuSans-Bold-33" transform="translate(288.232422 0)"/>
     <use xlink:href="#DejaVuSans-Bold-34" transform="translate(357.8125 0)"/>
    </g>
   </g>
   <g id="text_33">
    <!-- +0.0027 -->
    <g style="fill: #a0a0a0" transform="translate(900.356127 98.32551) scale(0.09 -0.09)">
     <use xlink:href="#DejaVuSans-Bold-2b"/>
     <use xlink:href="#DejaVuSans-Bold-30" transform="translate(83.789062 0)"/>
     <use xlink:href="#DejaVuSans-Bold-2e" transform="translate(153.369141 0)"/>
     <use xlink:href="#DejaVuSans-Bold-30" transform="translate(191.357422 0)"/>
     <use xlink:href="#DejaVuSans-Bold-30" transform="translate(260.9375 0)"/>
     <use xlink:href="#DejaVuSans-Bold-32" transform="translate(330.517578 0)"/>
     <use xlink:href="#DejaVuSans-Bold-37" transform="translate(400.097656 0)"/>
    </g>
   </g>
   <g id="text_34">
    <!-- MORTALITY Filter Impact Testing Accuracy Deviation From Raw Using Maximum deviation Aggregation -->
    <g style="fill: #ffffff" transform="translate(217.10875 16.318125) scale(0.12 -0.12)">
     <defs>
      <path id="DejaVuSans-4d" d="M 628 4666 
L 1569 4666 
L 2759 1491 
L 3956 4666 
L 4897 4666 
L 4897 0 
L 4281 0 
L 4281 4097 
L 3078 897 
L 2444 897 
L 1241 4097 
L 1241 0 
L 628 0 
L 628 4666 
z
" transform="scale(0.015625)"/>
      <path id="DejaVuSans-4f" d="M 2522 4238 
Q 1834 4238 1429 3725 
Q 1025 3213 1025 2328 
Q 1025 1447 1429 934 
Q 1834 422 2522 422 
Q 3209 422 3611 934 
Q 4013 1447 4013 2328 
Q 4013 3213 3611 3725 
Q 3209 4238 2522 4238 
z
M 2522 4750 
Q 3503 4750 4090 4092 
Q 4678 3434 4678 2328 
Q 4678 1225 4090 567 
Q 3503 -91 2522 -91 
Q 1538 -91 948 565 
Q 359 1222 359 2328 
Q 359 3434 948 4092 
Q 1538 4750 2522 4750 
z
" transform="scale(0.015625)"/>
      <path id="DejaVuSans-52" d="M 2841 2188 
Q 3044 2119 3236 1894 
Q 3428 1669 3622 1275 
L 4263 0 
L 3584 0 
L 2988 1197 
Q 2756 1666 2539 1819 
Q 2322 1972 1947 1972 
L 1259 1972 
L 1259 0 
L 628 0 
L 628 4666 
L 2053 4666 
Q 2853 4666 3247 4331 
Q 3641 3997 3641 3322 
Q 3641 2881 3436 2590 
Q 3231 2300 2841 2188 
z
M 1259 4147 
L 1259 2491 
L 2053 2491 
Q 2509 2491 2742 2702 
Q 2975 2913 2975 3322 
Q 2975 3731 2742 3939 
Q 2509 4147 2053 4147 
L 1259 4147 
z
" transform="scale(0.015625)"/>
      <path id="DejaVuSans-4c" d="M 628 4666 
L 1259 4666 
L 1259 531 
L 3531 531 
L 3531 0 
L 628 0 
L 628 4666 
z
" transform="scale(0.015625)"/>
      <path id="DejaVuSans-49" d="M 628 4666 
L 1259 4666 
L 1259 0 
L 628 0 
L 628 4666 
z
" transform="scale(0.015625)"/>
      <path id="DejaVuSans-59" d="M -13 4666 
L 666 4666 
L 1959 2747 
L 3244 4666 
L 3922 4666 
L 2272 2222 
L 2272 0 
L 1638 0 
L 1638 2222 
L -13 4666 
z
" transform="scale(0.015625)"/>
      <path id="DejaVuSans-77" d="M 269 3500 
L 844 3500 
L 1563 769 
L 2278 3500 
L 2956 3500 
L 3675 769 
L 4391 3500 
L 4966 3500 
L 4050 0 
L 3372 0 
L 2619 2869 
L 1863 0 
L 1184 0 
L 269 3500 
z
" transform="scale(0.015625)"/>
      <path id="DejaVuSans-55" d="M 556 4666 
L 1191 4666 
L 1191 1831 
Q 1191 1081 1462 751 
Q 1734 422 2344 422 
Q 2950 422 3222 751 
Q 3494 1081 3494 1831 
L 3494 4666 
L 4128 4666 
L 4128 1753 
Q 4128 841 3676 375 
Q 3225 -91 2344 -91 
Q 1459 -91 1007 375 
Q 556 841 556 1753 
L 556 4666 
z
" transform="scale(0.015625)"/>
     </defs>
     <use xlink:href="#DejaVuSans-4d"/>
     <use xlink:href="#DejaVuSans-4f" transform="translate(86.279297 0)"/>
     <use xlink:href="#DejaVuSans-52" transform="translate(164.990234 0)"/>
     <use xlink:href="#DejaVuSans-54" transform="translate(227.222656 0)"/>
     <use xlink:href="#DejaVuSans-41" transform="translate(280.556641 0)"/>
     <use xlink:href="#DejaVuSans-4c" transform="translate(348.964844 0)"/>
     <use xlink:href="#DejaVuSans-49" transform="translate(404.677734 0)"/>
     <use xlink:href="#DejaVuSans-54" transform="translate(434.169922 0)"/>
     <use xlink:href="#DejaVuSans-59" transform="translate(495.253906 0)"/>
     <use xlink:href="#DejaVuSans-20" transform="translate(556.337891 0)"/>
     <use xlink:href="#DejaVuSans-46" transform="translate(588.125 0)"/>
     <use xlink:href="#DejaVuSans-69" transform="translate(638.394531 0)"/>
     <use xlink:href="#DejaVuSans-6c" transform="translate(666.177734 0)"/>
     <use xlink:href="#DejaVuSans-74" transform="translate(693.960938 0)"/>
     <use xlink:href="#DejaVuSans-65" transform="translate(733.169922 0)"/>
     <use xlink:href="#DejaVuSans-72" transform="translate(794.693359 0)"/>
     <use xlink:href="#DejaVuSans-20" transform="translate(835.806641 0)"/>
     <use xlink:href="#DejaVuSans-49" transform="translate(867.59375 0)"/>
     <use xlink:href="#DejaVuSans-6d" transform="translate(897.085938 0)"/>
     <use xlink:href="#DejaVuSans-70" transform="translate(994.498047 0)"/>
     <use xlink:href="#DejaVuSans-61" transform="translate(1057.974609 0)"/>
     <use xlink:href="#DejaVuSans-63" transform="translate(1119.253906 0)"/>
     <use xlink:href="#DejaVuSans-74" transform="translate(1174.234375 0)"/>
     <use xlink:href="#DejaVuSans-20" transform="translate(1213.443359 0)"/>
     <use xlink:href="#DejaVuSans-54" transform="translate(1245.230469 0)"/>
     <use xlink:href="#DejaVuSans-65" transform="translate(1289.314453 0)"/>
     <use xlink:href="#DejaVuSans-73" transform="translate(1350.837891 0)"/>
     <use xlink:href="#DejaVuSans-74" transform="translate(1402.9375 0)"/>
     <use xlink:href="#DejaVuSans-69" transform="translate(1442.146484 0)"/>
     <use xlink:href="#DejaVuSans-6e" transform="translate(1469.929688 0)"/>
     <use xlink:href="#DejaVuSans-67" transform="translate(1533.308594 0)"/>
     <use xlink:href="#DejaVuSans-20" transform="translate(1596.785156 0)"/>
     <use xlink:href="#DejaVuSans-41" transform="translate(1628.572266 0)"/>
     <use xlink:href="#DejaVuSans-63" transform="translate(1695.230469 0)"/>
     <use xlink:href="#DejaVuSans-63" transform="translate(1750.210938 0)"/>
     <use xlink:href="#DejaVuSans-75" transform="translate(1805.191406 0)"/>
     <use xlink:href="#DejaVuSans-72" transform="translate(1868.570312 0)"/>
     <use xlink:href="#DejaVuSans-61" transform="translate(1909.683594 0)"/>
     <use xlink:href="#DejaVuSans-63" transform="translate(1970.962891 0)"/>
     <use xlink:href="#DejaVuSans-79" transform="translate(2025.943359 0)"/>
     <use xlink:href="#DejaVuSans-20" transform="translate(2085.123047 0)"/>
     <use xlink:href="#DejaVuSans-44" transform="translate(2116.910156 0)"/>
     <use xlink:href="#DejaVuSans-65" transform="translate(2193.912109 0)"/>
     <use xlink:href="#DejaVuSans-76" transform="translate(2255.435547 0)"/>
     <use xlink:href="#DejaVuSans-69" transform="translate(2314.615234 0)"/>
     <use xlink:href="#DejaVuSans-61" transform="translate(2342.398438 0)"/>
     <use xlink:href="#DejaVuSans-74" transform="translate(2403.677734 0)"/>
     <use xlink:href="#DejaVuSans-69" transform="translate(2442.886719 0)"/>
     <use xlink:href="#DejaVuSans-6f" transform="translate(2470.669922 0)"/>
     <use xlink:href="#DejaVuSans-6e" transform="translate(2531.851562 0)"/>
     <use xlink:href="#DejaVuSans-20" transform="translate(2595.230469 0)"/>
     <use xlink:href="#DejaVuSans-46" transform="translate(2627.017578 0)"/>
     <use xlink:href="#DejaVuSans-72" transform="translate(2677.287109 0)"/>
     <use xlink:href="#DejaVuSans-6f" transform="translate(2716.150391 0)"/>
     <use xlink:href="#DejaVuSans-6d" transform="translate(2777.332031 0)"/>
     <use xlink:href="#DejaVuSans-20" transform="translate(2874.744141 0)"/>
     <use xlink:href="#DejaVuSans-52" transform="translate(2906.53125 0)"/>
     <use xlink:href="#DejaVuSans-61" transform="translate(2973.763672 0)"/>
     <use xlink:href="#DejaVuSans-77" transform="translate(3035.042969 0)"/>
     <use xlink:href="#DejaVuSans-20" transform="translate(3116.830078 0)"/>
     <use xlink:href="#DejaVuSans-55" transform="translate(3148.617188 0)"/>
     <use xlink:href="#DejaVuSans-73" transform="translate(3221.810547 0)"/>
     <use xlink:href="#DejaVuSans-69" transform="translate(3273.910156 0)"/>
     <use xlink:href="#DejaVuSans-6e" transform="translate(3301.693359 0)"/>
     <use xlink:href="#DejaVuSans-67" transform="translate(3365.072266 0)"/>
     <use xlink:href="#DejaVuSans-20" transform="translate(3428.548828 0)"/>
     <use xlink:href="#DejaVuSans-4d" transform="translate(3460.335938 0)"/>
     <use xlink:href="#DejaVuSans-61" transform="translate(3546.615234 0)"/>
     <use xlink:href="#DejaVuSans-78" transform="translate(3607.894531 0)"/>
     <use xlink:href="#DejaVuSans-69" transform="translate(3667.074219 0)"/>
     <use xlink:href="#DejaVuSans-6d" transform="translate(3694.857422 0)"/>
     <use xlink:href="#DejaVuSans-75" transform="translate(3792.269531 0)"/>
     <use xlink:href="#DejaVuSans-6d" transform="translate(3855.648438 0)"/>
     <use xlink:href="#DejaVuSans-20" transform="translate(3953.060547 0)"/>
     <use xlink:href="#DejaVuSans-64" transform="translate(3984.847656 0)"/>
     <use xlink:href="#DejaVuSans-65" transform="translate(4048.324219 0)"/>
     <use xlink:href="#DejaVuSans-76" transform="translate(4109.847656 0)"/>
     <use xlink:href="#DejaVuSans-69" transform="translate(4169.027344 0)"/>
     <use xlink:href="#DejaVuSans-61" transform="translate(4196.810547 0)"/>
     <use xlink:href="#DejaVuSans-74" transform="translate(4258.089844 0)"/>
     <use xlink:href="#DejaVuSans-69" transform="translate(4297.298828 0)"/>
     <use xlink:href="#DejaVuSans-6f" transform="translate(4325.082031 0)"/>
     <use xlink:href="#DejaVuSans-6e" transform="translate(4386.263672 0)"/>
     <use xlink:href="#DejaVuSans-20" transform="translate(4449.642578 0)"/>
     <use xlink:href="#DejaVuSans-41" transform="translate(4481.429688 0)"/>
     <use xlink:href="#DejaVuSans-67" transform="translate(4549.837891 0)"/>
     <use xlink:href="#DejaVuSans-67" transform="translate(4613.314453 0)"/>
     <use xlink:href="#DejaVuSans-72" transform="translate(4676.791016 0)"/>
     <use xlink:href="#DejaVuSans-65" transform="translate(4715.654297 0)"/>
     <use xlink:href="#DejaVuSans-67" transform="translate(4777.177734 0)"/>
     <use xlink:href="#DejaVuSans-61" transform="translate(4840.654297 0)"/>
     <use xlink:href="#DejaVuSans-74" transform="translate(4901.933594 0)"/>
     <use xlink:href="#DejaVuSans-69" transform="translate(4941.142578 0)"/>
     <use xlink:href="#DejaVuSans-6f" transform="translate(4968.925781 0)"/>
     <use xlink:href="#DejaVuSans-6e" transform="translate(5030.107422 0)"/>
    </g>
   </g>
  </g>
 </g>
 <defs>
  <clipPath id="p9f632c8317">
   <rect x="52.160938" y="22.318125" width="941.11" height="426.044438"/>
  </clipPath>
 </defs>
</svg>
