<?xml version="1.0" encoding="utf-8" standalone="no"?>
<!DOCTYPE svg PUBLIC "-//W3C//DTD SVG 1.1//EN"
  "http://www.w3.org/Graphics/SVG/1.1/DTD/svg11.dtd">
<svg xmlns:xlink="http://www.w3.org/1999/xlink" width="996.725625pt" height="494.150696pt" viewBox="0 0 996.725625 494.150696" xmlns="http://www.w3.org/2000/svg" version="1.1">
 <metadata>
  <rdf:RDF xmlns:dc="http://purl.org/dc/elements/1.1/" xmlns:cc="http://creativecommons.org/ns#" xmlns:rdf="http://www.w3.org/1999/02/22-rdf-syntax-ns#">
   <cc:Work>
    <dc:type rdf:resource="http://purl.org/dc/dcmitype/StillImage"/>
    <dc:date>2026-05-18T12:56:01.869316</dc:date>
    <dc:format>image/svg+xml</dc:format>
    <dc:creator>
     <cc:Agent>
      <dc:title>Matplotlib v3.10.8, https://matplotlib.org/</dc:title>
     </cc:Agent>
    </dc:creator>
   </cc:Work>
  </rdf:RDF>
 </metadata>
 <defs>
  <style type="text/css">*{stroke-linejoin: round; stroke-linecap: butt}</style>
 </defs>
 <g id="figure_1">
  <g id="patch_1">
   <path d="M 0 494.150696 
L 996.725625 494.150696 
L 996.725625 0 
L 0 0 
z
" style="fill: #191a1c"/>
  </g>
  <g id="axes_1">
   <g id="patch_2">
    <path d="M 52.105625 373.482563 
L 989.525625 373.482563 
L 989.525625 22.318125 
L 52.105625 22.318125 
z
" style="fill: #191a1c"/>
   </g>
   <g id="matplotlib.axis_1">
    <g id="xtick_1">
     <g id="line2d_1">
      <defs>
       <path id="m5a0267639e" d="M 0 0 
L 0 3.5 
" style="stroke: #000000; stroke-width: 0.8"/>
      </defs>
      <g>
       <use xlink:href="#m5a0267639e" x="123.603761" y="373.482563" style="stroke: #000000; stroke-width: 0.8"/>
      </g>
     </g>
     <g id="text_1">
      <!-- heart rate -->
      <g style="fill: #ffffff" transform="translate(86.678424 421.310246) rotate(-45) scale(0.1 -0.1)">
       <defs>
        <path id="DejaVuSans-68" d="M 3513 2113 
L 3513 0 
L 2938 0 
L 2938 2094 
Q 2938 2591 2744 2837 
Q 2550 3084 2163 3084 
Q 1697 3084 1428 2787 
Q 1159 2491 1159 1978 
L 1159 0 
L 581 0 
L 581 4863 
L 1159 4863 
L 1159 2956 
Q 1366 3272 1645 3428 
Q 1925 3584 2291 3584 
Q 2894 3584 3203 3211 
Q 3513 2838 3513 2113 
z
" transform="scale(0.015625)"/>
        <path id="DejaVuSans-65" d="M 3597 1894 
L 3597 1613 
L 953 1613 
Q 991 1019 1311 708 
Q 1631 397 2203 397 
Q 2534 397 2845 478 
Q 3156 559 3463 722 
L 3463 178 
Q 3153 47 2828 -22 
Q 2503 -91 2169 -91 
Q 1331 -91 842 396 
Q 353 884 353 1716 
Q 353 2575 817 3079 
Q 1281 3584 2069 3584 
Q 2775 3584 3186 3129 
Q 3597 2675 3597 1894 
z
M 3022 2063 
Q 3016 2534 2758 2815 
Q 2500 3097 2075 3097 
Q 1594 3097 1305 2825 
Q 1016 2553 972 2059 
L 3022 2063 
z
" transform="scale(0.015625)"/>
        <path id="DejaVuSans-61" d="M 2194 1759 
Q 1497 1759 1228 1600 
Q 959 1441 959 1056 
Q 959 750 1161 570 
Q 1363 391 1709 391 
Q 2188 391 2477 730 
Q 2766 1069 2766 1631 
L 2766 1759 
L 2194 1759 
z
M 3341 1997 
L 3341 0 
L 2766 0 
L 2766 531 
Q 2569 213 2275 61 
Q 1981 -91 1556 -91 
Q 1019 -91 701 211 
Q 384 513 384 1019 
Q 384 1609 779 1909 
Q 1175 2209 1959 2209 
L 2766 2209 
L 2766 2266 
Q 2766 2663 2505 2880 
Q 2244 3097 1772 3097 
Q 1472 3097 1187 3025 
Q 903 2953 641 2809 
L 641 3341 
Q 956 3463 1253 3523 
Q 1550 3584 1831 3584 
Q 2591 3584 2966 3190 
Q 3341 2797 3341 1997 
z
" transform="scale(0.015625)"/>
        <path id="DejaVuSans-72" d="M 2631 2963 
Q 2534 3019 2420 3045 
Q 2306 3072 2169 3072 
Q 1681 3072 1420 2755 
Q 1159 2438 1159 1844 
L 1159 0 
L 581 0 
L 581 3500 
L 1159 3500 
L 1159 2956 
Q 1341 3275 1631 3429 
Q 1922 3584 2338 3584 
Q 2397 3584 2469 3576 
Q 2541 3569 2628 3553 
L 2631 2963 
z
" transform="scale(0.015625)"/>
        <path id="DejaVuSans-74" d="M 1172 4494 
L 1172 3500 
L 2356 3500 
L 2356 3053 
L 1172 3053 
L 1172 1153 
Q 1172 725 1289 603 
Q 1406 481 1766 481 
L 2356 481 
L 2356 0 
L 1766 0 
Q 1100 0 847 248 
Q 594 497 594 1153 
L 594 3053 
L 172 3053 
L 172 3500 
L 594 3500 
L 594 4494 
L 1172 4494 
z
" transform="scale(0.015625)"/>
        <path id="DejaVuSans-20" transform="scale(0.015625)"/>
       </defs>
       <use xlink:href="#DejaVuSans-68"/>
       <use xlink:href="#DejaVuSans-65" transform="translate(63.378906 0)"/>
       <use xlink:href="#DejaVuSans-61" transform="translate(124.902344 0)"/>
       <use xlink:href="#DejaVuSans-72" transform="translate(186.181641 0)"/>
       <use xlink:href="#DejaVuSans-74" transform="translate(227.294922 0)"/>
       <use xlink:href="#DejaVuSans-20" transform="translate(266.503906 0)"/>
       <use xlink:href="#DejaVuSans-72" transform="translate(298.291016 0)"/>
       <use xlink:href="#DejaVuSans-61" transform="translate(339.404297 0)"/>
       <use xlink:href="#DejaVuSans-74" transform="translate(400.683594 0)"/>
       <use xlink:href="#DejaVuSans-65" transform="translate(439.892578 0)"/>
      </g>
     </g>
    </g>
    <g id="xtick_2">
     <g id="line2d_2">
      <g>
       <use xlink:href="#m5a0267639e" x="195.8241" y="373.482563" style="stroke: #000000; stroke-width: 0.8"/>
      </g>
     </g>
     <g id="text_2">
      <!-- systolic blood pressure -->
      <g style="fill: #ffffff" transform="translate(113.260544 466.948465) rotate(-45) scale(0.1 -0.1)">
       <defs>
        <path id="DejaVuSans-73" d="M 2834 3397 
L 2834 2853 
Q 2591 2978 2328 3040 
Q 2066 3103 1784 3103 
Q 1356 3103 1142 2972 
Q 928 2841 928 2578 
Q 928 2378 1081 2264 
Q 1234 2150 1697 2047 
L 1894 2003 
Q 2506 1872 2764 1633 
Q 3022 1394 3022 966 
Q 3022 478 2636 193 
Q 2250 -91 1575 -91 
Q 1294 -91 989 -36 
Q 684 19 347 128 
L 347 722 
Q 666 556 975 473 
Q 1284 391 1588 391 
Q 1994 391 2212 530 
Q 2431 669 2431 922 
Q 2431 1156 2273 1281 
Q 2116 1406 1581 1522 
L 1381 1569 
Q 847 1681 609 1914 
Q 372 2147 372 2553 
Q 372 3047 722 3315 
Q 1072 3584 1716 3584 
Q 2034 3584 2315 3537 
Q 2597 3491 2834 3397 
z
" transform="scale(0.015625)"/>
        <path id="DejaVuSans-79" d="M 2059 -325 
Q 1816 -950 1584 -1140 
Q 1353 -1331 966 -1331 
L 506 -1331 
L 506 -850 
L 844 -850 
Q 1081 -850 1212 -737 
Q 1344 -625 1503 -206 
L 1606 56 
L 191 3500 
L 800 3500 
L 1894 763 
L 2988 3500 
L 3597 3500 
L 2059 -325 
z
" transform="scale(0.015625)"/>
        <path id="DejaVuSans-6f" d="M 1959 3097 
Q 1497 3097 1228 2736 
Q 959 2375 959 1747 
Q 959 1119 1226 758 
Q 1494 397 1959 397 
Q 2419 397 2687 759 
Q 2956 1122 2956 1747 
Q 2956 2369 2687 2733 
Q 2419 3097 1959 3097 
z
M 1959 3584 
Q 2709 3584 3137 3096 
Q 3566 2609 3566 1747 
Q 3566 888 3137 398 
Q 2709 -91 1959 -91 
Q 1206 -91 779 398 
Q 353 888 353 1747 
Q 353 2609 779 3096 
Q 1206 3584 1959 3584 
z
" transform="scale(0.015625)"/>
        <path id="DejaVuSans-6c" d="M 603 4863 
L 1178 4863 
L 1178 0 
L 603 0 
L 603 4863 
z
" transform="scale(0.015625)"/>
        <path id="DejaVuSans-69" d="M 603 3500 
L 1178 3500 
L 1178 0 
L 603 0 
L 603 3500 
z
M 603 4863 
L 1178 4863 
L 1178 4134 
L 603 4134 
L 603 4863 
z
" transform="scale(0.015625)"/>
        <path id="DejaVuSans-63" d="M 3122 3366 
L 3122 2828 
Q 2878 2963 2633 3030 
Q 2388 3097 2138 3097 
Q 1578 3097 1268 2742 
Q 959 2388 959 1747 
Q 959 1106 1268 751 
Q 1578 397 2138 397 
Q 2388 397 2633 464 
Q 2878 531 3122 666 
L 3122 134 
Q 2881 22 2623 -34 
Q 2366 -91 2075 -91 
Q 1284 -91 818 406 
Q 353 903 353 1747 
Q 353 2603 823 3093 
Q 1294 3584 2113 3584 
Q 2378 3584 2631 3529 
Q 2884 3475 3122 3366 
z
" transform="scale(0.015625)"/>
        <path id="DejaVuSans-62" d="M 3116 1747 
Q 3116 2381 2855 2742 
Q 2594 3103 2138 3103 
Q 1681 3103 1420 2742 
Q 1159 2381 1159 1747 
Q 1159 1113 1420 752 
Q 1681 391 2138 391 
Q 2594 391 2855 752 
Q 3116 1113 3116 1747 
z
M 1159 2969 
Q 1341 3281 1617 3432 
Q 1894 3584 2278 3584 
Q 2916 3584 3314 3078 
Q 3713 2572 3713 1747 
Q 3713 922 3314 415 
Q 2916 -91 2278 -91 
Q 1894 -91 1617 61 
Q 1341 213 1159 525 
L 1159 0 
L 581 0 
L 581 4863 
L 1159 4863 
L 1159 2969 
z
" transform="scale(0.015625)"/>
        <path id="DejaVuSans-64" d="M 2906 2969 
L 2906 4863 
L 3481 4863 
L 3481 0 
L 2906 0 
L 2906 525 
Q 2725 213 2448 61 
Q 2172 -91 1784 -91 
Q 1150 -91 751 415 
Q 353 922 353 1747 
Q 353 2572 751 3078 
Q 1150 3584 1784 3584 
Q 2172 3584 2448 3432 
Q 2725 3281 2906 2969 
z
M 947 1747 
Q 947 1113 1208 752 
Q 1469 391 1925 391 
Q 2381 391 2643 752 
Q 2906 1113 2906 1747 
Q 2906 2381 2643 2742 
Q 2381 3103 1925 3103 
Q 1469 3103 1208 2742 
Q 947 2381 947 1747 
z
" transform="scale(0.015625)"/>
        <path id="DejaVuSans-70" d="M 1159 525 
L 1159 -1331 
L 581 -1331 
L 581 3500 
L 1159 3500 
L 1159 2969 
Q 1341 3281 1617 3432 
Q 1894 3584 2278 3584 
Q 2916 3584 3314 3078 
Q 3713 2572 3713 1747 
Q 3713 922 3314 415 
Q 2916 -91 2278 -91 
Q 1894 -91 1617 61 
Q 1341 213 1159 525 
z
M 3116 1747 
Q 3116 2381 2855 2742 
Q 2594 3103 2138 3103 
Q 1681 3103 1420 2742 
Q 1159 2381 1159 1747 
Q 1159 1113 1420 752 
Q 1681 391 2138 391 
Q 2594 391 2855 752 
Q 3116 1113 3116 1747 
z
" transform="scale(0.015625)"/>
        <path id="DejaVuSans-75" d="M 544 1381 
L 544 3500 
L 1119 3500 
L 1119 1403 
Q 1119 906 1312 657 
Q 1506 409 1894 409 
Q 2359 409 2629 706 
Q 2900 1003 2900 1516 
L 2900 3500 
L 3475 3500 
L 3475 0 
L 2900 0 
L 2900 538 
Q 2691 219 2414 64 
Q 2138 -91 1772 -91 
Q 1169 -91 856 284 
Q 544 659 544 1381 
z
M 1991 3584 
L 1991 3584 
z
" transform="scale(0.015625)"/>
       </defs>
       <use xlink:href="#DejaVuSans-73"/>
       <use xlink:href="#DejaVuSans-79" transform="translate(52.099609 0)"/>
       <use xlink:href="#DejaVuSans-73" transform="translate(111.279297 0)"/>
       <use xlink:href="#DejaVuSans-74" transform="translate(163.378906 0)"/>
       <use xlink:href="#DejaVuSans-6f" transform="translate(202.587891 0)"/>
       <use xlink:href="#DejaVuSans-6c" transform="translate(263.769531 0)"/>
       <use xlink:href="#DejaVuSans-69" transform="translate(291.552734 0)"/>
       <use xlink:href="#DejaVuSans-63" transform="translate(319.335938 0)"/>
       <use xlink:href="#DejaVuSans-20" transform="translate(374.316406 0)"/>
       <use xlink:href="#DejaVuSans-62" transform="translate(406.103516 0)"/>
       <use xlink:href="#DejaVuSans-6c" transform="translate(469.580078 0)"/>
       <use xlink:href="#DejaVuSans-6f" transform="translate(497.363281 0)"/>
       <use xlink:href="#DejaVuSans-6f" transform="translate(558.544922 0)"/>
       <use xlink:href="#DejaVuSans-64" transform="translate(619.726562 0)"/>
       <use xlink:href="#DejaVuSans-20" transform="translate(683.203125 0)"/>
       <use xlink:href="#DejaVuSans-70" transform="translate(714.990234 0)"/>
       <use xlink:href="#DejaVuSans-72" transform="translate(778.466797 0)"/>
       <use xlink:href="#DejaVuSans-65" transform="translate(817.330078 0)"/>
       <use xlink:href="#DejaVuSans-73" transform="translate(878.853516 0)"/>
       <use xlink:href="#DejaVuSans-73" transform="translate(930.953125 0)"/>
       <use xlink:href="#DejaVuSans-75" transform="translate(983.052734 0)"/>
       <use xlink:href="#DejaVuSans-72" transform="translate(1046.431641 0)"/>
       <use xlink:href="#DejaVuSans-65" transform="translate(1085.294922 0)"/>
      </g>
     </g>
    </g>
    <g id="xtick_3">
     <g id="line2d_3">
      <g>
       <use xlink:href="#m5a0267639e" x="268.044439" y="373.482563" style="stroke: #000000; stroke-width: 0.8"/>
      </g>
     </g>
     <g id="text_3">
      <!-- diastolic blood pressure -->
      <g style="fill: #ffffff" transform="translate(182.562963 469.866385) rotate(-45) scale(0.1 -0.1)">
       <use xlink:href="#DejaVuSans-64"/>
       <use xlink:href="#DejaVuSans-69" transform="translate(63.476562 0)"/>
       <use xlink:href="#DejaVuSans-61" transform="translate(91.259766 0)"/>
       <use xlink:href="#DejaVuSans-73" transform="translate(152.539062 0)"/>
       <use xlink:href="#DejaVuSans-74" transform="translate(204.638672 0)"/>
       <use xlink:href="#DejaVuSans-6f" transform="translate(243.847656 0)"/>
       <use xlink:href="#DejaVuSans-6c" transform="translate(305.029297 0)"/>
       <use xlink:href="#DejaVuSans-69" transform="translate(332.8125 0)"/>
       <use xlink:href="#DejaVuSans-63" transform="translate(360.595703 0)"/>
       <use xlink:href="#DejaVuSans-20" transform="translate(415.576172 0)"/>
       <use xlink:href="#DejaVuSans-62" transform="translate(447.363281 0)"/>
       <use xlink:href="#DejaVuSans-6c" transform="translate(510.839844 0)"/>
       <use xlink:href="#DejaVuSans-6f" transform="translate(538.623047 0)"/>
       <use xlink:href="#DejaVuSans-6f" transform="translate(599.804688 0)"/>
       <use xlink:href="#DejaVuSans-64" transform="translate(660.986328 0)"/>
       <use xlink:href="#DejaVuSans-20" transform="translate(724.462891 0)"/>
       <use xlink:href="#DejaVuSans-70" transform="translate(756.25 0)"/>
       <use xlink:href="#DejaVuSans-72" transform="translate(819.726562 0)"/>
       <use xlink:href="#DejaVuSans-65" transform="translate(858.589844 0)"/>
       <use xlink:href="#DejaVuSans-73" transform="translate(920.113281 0)"/>
       <use xlink:href="#DejaVuSans-73" transform="translate(972.212891 0)"/>
       <use xlink:href="#DejaVuSans-75" transform="translate(1024.3125 0)"/>
       <use xlink:href="#DejaVuSans-72" transform="translate(1087.691406 0)"/>
       <use xlink:href="#DejaVuSans-65" transform="translate(1126.554688 0)"/>
      </g>
     </g>
    </g>
    <g id="xtick_4">
     <g id="line2d_4">
      <g>
       <use xlink:href="#m5a0267639e" x="340.264778" y="373.482563" style="stroke: #000000; stroke-width: 0.8"/>
      </g>
     </g>
     <g id="text_4">
      <!-- mean blood pressure -->
      <g style="fill: #ffffff" transform="translate(264.116006 460.53368) rotate(-45) scale(0.1 -0.1)">
       <defs>
        <path id="DejaVuSans-6d" d="M 3328 2828 
Q 3544 3216 3844 3400 
Q 4144 3584 4550 3584 
Q 5097 3584 5394 3201 
Q 5691 2819 5691 2113 
L 5691 0 
L 5113 0 
L 5113 2094 
Q 5113 2597 4934 2840 
Q 4756 3084 4391 3084 
Q 3944 3084 3684 2787 
Q 3425 2491 3425 1978 
L 3425 0 
L 2847 0 
L 2847 2094 
Q 2847 2600 2669 2842 
Q 2491 3084 2119 3084 
Q 1678 3084 1418 2786 
Q 1159 2488 1159 1978 
L 1159 0 
L 581 0 
L 581 3500 
L 1159 3500 
L 1159 2956 
Q 1356 3278 1631 3431 
Q 1906 3584 2284 3584 
Q 2666 3584 2933 3390 
Q 3200 3197 3328 2828 
z
" transform="scale(0.015625)"/>
        <path id="DejaVuSans-6e" d="M 3513 2113 
L 3513 0 
L 2938 0 
L 2938 2094 
Q 2938 2591 2744 2837 
Q 2550 3084 2163 3084 
Q 1697 3084 1428 2787 
Q 1159 2491 1159 1978 
L 1159 0 
L 581 0 
L 581 3500 
L 1159 3500 
L 1159 2956 
Q 1366 3272 1645 3428 
Q 1925 3584 2291 3584 
Q 2894 3584 3203 3211 
Q 3513 2838 3513 2113 
z
" transform="scale(0.015625)"/>
       </defs>
       <use xlink:href="#DejaVuSans-6d"/>
       <use xlink:href="#DejaVuSans-65" transform="translate(97.412109 0)"/>
       <use xlink:href="#DejaVuSans-61" transform="translate(158.935547 0)"/>
       <use xlink:href="#DejaVuSans-6e" transform="translate(220.214844 0)"/>
       <use xlink:href="#DejaVuSans-20" transform="translate(283.59375 0)"/>
       <use xlink:href="#DejaVuSans-62" transform="translate(315.380859 0)"/>
       <use xlink:href="#DejaVuSans-6c" transform="translate(378.857422 0)"/>
       <use xlink:href="#DejaVuSans-6f" transform="translate(406.640625 0)"/>
       <use xlink:href="#DejaVuSans-6f" transform="translate(467.822266 0)"/>
       <use xlink:href="#DejaVuSans-64" transform="translate(529.003906 0)"/>
       <use xlink:href="#DejaVuSans-20" transform="translate(592.480469 0)"/>
       <use xlink:href="#DejaVuSans-70" transform="translate(624.267578 0)"/>
       <use xlink:href="#DejaVuSans-72" transform="translate(687.744141 0)"/>
       <use xlink:href="#DejaVuSans-65" transform="translate(726.607422 0)"/>
       <use xlink:href="#DejaVuSans-73" transform="translate(788.130859 0)"/>
       <use xlink:href="#DejaVuSans-73" transform="translate(840.230469 0)"/>
       <use xlink:href="#DejaVuSans-75" transform="translate(892.330078 0)"/>
       <use xlink:href="#DejaVuSans-72" transform="translate(955.708984 0)"/>
       <use xlink:href="#DejaVuSans-65" transform="translate(994.572266 0)"/>
      </g>
     </g>
    </g>
    <g id="xtick_5">
     <g id="line2d_5">
      <g>
       <use xlink:href="#m5a0267639e" x="412.485117" y="373.482563" style="stroke: #000000; stroke-width: 0.8"/>
      </g>
     </g>
     <g id="text_5">
      <!-- respiration rate -->
      <g style="fill: #ffffff" transform="translate(356.383927 440.486098) rotate(-45) scale(0.1 -0.1)">
       <use xlink:href="#DejaVuSans-72"/>
       <use xlink:href="#DejaVuSans-65" transform="translate(38.863281 0)"/>
       <use xlink:href="#DejaVuSans-73" transform="translate(100.386719 0)"/>
       <use xlink:href="#DejaVuSans-70" transform="translate(152.486328 0)"/>
       <use xlink:href="#DejaVuSans-69" transform="translate(215.962891 0)"/>
       <use xlink:href="#DejaVuSans-72" transform="translate(243.746094 0)"/>
       <use xlink:href="#DejaVuSans-61" transform="translate(284.859375 0)"/>
       <use xlink:href="#DejaVuSans-74" transform="translate(346.138672 0)"/>
       <use xlink:href="#DejaVuSans-69" transform="translate(385.347656 0)"/>
       <use xlink:href="#DejaVuSans-6f" transform="translate(413.130859 0)"/>
       <use xlink:href="#DejaVuSans-6e" transform="translate(474.3125 0)"/>
       <use xlink:href="#DejaVuSans-20" transform="translate(537.691406 0)"/>
       <use xlink:href="#DejaVuSans-72" transform="translate(569.478516 0)"/>
       <use xlink:href="#DejaVuSans-61" transform="translate(610.591797 0)"/>
       <use xlink:href="#DejaVuSans-74" transform="translate(671.871094 0)"/>
       <use xlink:href="#DejaVuSans-65" transform="translate(711.080078 0)"/>
      </g>
     </g>
    </g>
    <g id="xtick_6">
     <g id="line2d_6">
      <g>
       <use xlink:href="#m5a0267639e" x="484.705456" y="373.482563" style="stroke: #000000; stroke-width: 0.8"/>
      </g>
     </g>
     <g id="text_6">
      <!-- temperature -->
      <g style="fill: #ffffff" transform="translate(438.792128 430.298236) rotate(-45) scale(0.1 -0.1)">
       <use xlink:href="#DejaVuSans-74"/>
       <use xlink:href="#DejaVuSans-65" transform="translate(39.208984 0)"/>
       <use xlink:href="#DejaVuSans-6d" transform="translate(100.732422 0)"/>
       <use xlink:href="#DejaVuSans-70" transform="translate(198.144531 0)"/>
       <use xlink:href="#DejaVuSans-65" transform="translate(261.621094 0)"/>
       <use xlink:href="#DejaVuSans-72" transform="translate(323.144531 0)"/>
       <use xlink:href="#DejaVuSans-61" transform="translate(364.257812 0)"/>
       <use xlink:href="#DejaVuSans-74" transform="translate(425.537109 0)"/>
       <use xlink:href="#DejaVuSans-75" transform="translate(464.746094 0)"/>
       <use xlink:href="#DejaVuSans-72" transform="translate(528.125 0)"/>
       <use xlink:href="#DejaVuSans-65" transform="translate(566.988281 0)"/>
      </g>
     </g>
    </g>
    <g id="xtick_7">
     <g id="line2d_7">
      <g>
       <use xlink:href="#m5a0267639e" x="556.925794" y="373.482563" style="stroke: #000000; stroke-width: 0.8"/>
      </g>
     </g>
     <g id="text_7">
      <!-- oxygen saturation -->
      <g style="fill: #ffffff" transform="translate(491.356004 449.9547) rotate(-45) scale(0.1 -0.1)">
       <defs>
        <path id="DejaVuSans-78" d="M 3513 3500 
L 2247 1797 
L 3578 0 
L 2900 0 
L 1881 1375 
L 863 0 
L 184 0 
L 1544 1831 
L 300 3500 
L 978 3500 
L 1906 2253 
L 2834 3500 
L 3513 3500 
z
" transform="scale(0.015625)"/>
        <path id="DejaVuSans-67" d="M 2906 1791 
Q 2906 2416 2648 2759 
Q 2391 3103 1925 3103 
Q 1463 3103 1205 2759 
Q 947 2416 947 1791 
Q 947 1169 1205 825 
Q 1463 481 1925 481 
Q 2391 481 2648 825 
Q 2906 1169 2906 1791 
z
M 3481 434 
Q 3481 -459 3084 -895 
Q 2688 -1331 1869 -1331 
Q 1566 -1331 1297 -1286 
Q 1028 -1241 775 -1147 
L 775 -588 
Q 1028 -725 1275 -790 
Q 1522 -856 1778 -856 
Q 2344 -856 2625 -561 
Q 2906 -266 2906 331 
L 2906 616 
Q 2728 306 2450 153 
Q 2172 0 1784 0 
Q 1141 0 747 490 
Q 353 981 353 1791 
Q 353 2603 747 3093 
Q 1141 3584 1784 3584 
Q 2172 3584 2450 3431 
Q 2728 3278 2906 2969 
L 2906 3500 
L 3481 3500 
L 3481 434 
z
" transform="scale(0.015625)"/>
       </defs>
       <use xlink:href="#DejaVuSans-6f"/>
       <use xlink:href="#DejaVuSans-78" transform="translate(58.056641 0)"/>
       <use xlink:href="#DejaVuSans-79" transform="translate(117.236328 0)"/>
       <use xlink:href="#DejaVuSans-67" transform="translate(176.416016 0)"/>
       <use xlink:href="#DejaVuSans-65" transform="translate(239.892578 0)"/>
       <use xlink:href="#DejaVuSans-6e" transform="translate(301.416016 0)"/>
       <use xlink:href="#DejaVuSans-20" transform="translate(364.794922 0)"/>
       <use xlink:href="#DejaVuSans-73" transform="translate(396.582031 0)"/>
       <use xlink:href="#DejaVuSans-61" transform="translate(448.681641 0)"/>
       <use xlink:href="#DejaVuSans-74" transform="translate(509.960938 0)"/>
       <use xlink:href="#DejaVuSans-75" transform="translate(549.169922 0)"/>
       <use xlink:href="#DejaVuSans-72" transform="translate(612.548828 0)"/>
       <use xlink:href="#DejaVuSans-61" transform="translate(653.662109 0)"/>
       <use xlink:href="#DejaVuSans-74" transform="translate(714.941406 0)"/>
       <use xlink:href="#DejaVuSans-69" transform="translate(754.150391 0)"/>
       <use xlink:href="#DejaVuSans-6f" transform="translate(781.933594 0)"/>
       <use xlink:href="#DejaVuSans-6e" transform="translate(843.115234 0)"/>
      </g>
     </g>
    </g>
    <g id="xtick_8">
     <g id="line2d_8">
      <g>
       <use xlink:href="#m5a0267639e" x="629.146133" y="373.482563" style="stroke: #000000; stroke-width: 0.8"/>
      </g>
     </g>
     <g id="text_8">
      <!-- fill missing data -->
      <g style="fill: #ffffff" transform="translate(571.716909 441.814133) rotate(-45) scale(0.1 -0.1)">
       <defs>
        <path id="DejaVuSans-66" d="M 2375 4863 
L 2375 4384 
L 1825 4384 
Q 1516 4384 1395 4259 
Q 1275 4134 1275 3809 
L 1275 3500 
L 2222 3500 
L 2222 3053 
L 1275 3053 
L 1275 0 
L 697 0 
L 697 3053 
L 147 3053 
L 147 3500 
L 697 3500 
L 697 3744 
Q 697 4328 969 4595 
Q 1241 4863 1831 4863 
L 2375 4863 
z
" transform="scale(0.015625)"/>
       </defs>
       <use xlink:href="#DejaVuSans-66"/>
       <use xlink:href="#DejaVuSans-69" transform="translate(35.205078 0)"/>
       <use xlink:href="#DejaVuSans-6c" transform="translate(62.988281 0)"/>
       <use xlink:href="#DejaVuSans-6c" transform="translate(90.771484 0)"/>
       <use xlink:href="#DejaVuSans-20" transform="translate(118.554688 0)"/>
       <use xlink:href="#DejaVuSans-6d" transform="translate(150.341797 0)"/>
       <use xlink:href="#DejaVuSans-69" transform="translate(247.753906 0)"/>
       <use xlink:href="#DejaVuSans-73" transform="translate(275.537109 0)"/>
       <use xlink:href="#DejaVuSans-73" transform="translate(327.636719 0)"/>
       <use xlink:href="#DejaVuSans-69" transform="translate(379.736328 0)"/>
       <use xlink:href="#DejaVuSans-6e" transform="translate(407.519531 0)"/>
       <use xlink:href="#DejaVuSans-67" transform="translate(470.898438 0)"/>
       <use xlink:href="#DejaVuSans-20" transform="translate(534.375 0)"/>
       <use xlink:href="#DejaVuSans-64" transform="translate(566.162109 0)"/>
       <use xlink:href="#DejaVuSans-61" transform="translate(629.638672 0)"/>
       <use xlink:href="#DejaVuSans-74" transform="translate(690.917969 0)"/>
       <use xlink:href="#DejaVuSans-61" transform="translate(730.126953 0)"/>
      </g>
     </g>
    </g>
    <g id="xtick_9">
     <g id="line2d_9">
      <g>
       <use xlink:href="#m5a0267639e" x="701.366472" y="373.482563" style="stroke: #000000; stroke-width: 0.8"/>
      </g>
     </g>
     <g id="text_9">
      <!-- long missing segment -->
      <g style="fill: #ffffff" transform="translate(621.970534 463.780847) rotate(-45) scale(0.1 -0.1)">
       <use xlink:href="#DejaVuSans-6c"/>
       <use xlink:href="#DejaVuSans-6f" transform="translate(27.783203 0)"/>
       <use xlink:href="#DejaVuSans-6e" transform="translate(88.964844 0)"/>
       <use xlink:href="#DejaVuSans-67" transform="translate(152.34375 0)"/>
       <use xlink:href="#DejaVuSans-20" transform="translate(215.820312 0)"/>
       <use xlink:href="#DejaVuSans-6d" transform="translate(247.607422 0)"/>
       <use xlink:href="#DejaVuSans-69" transform="translate(345.019531 0)"/>
       <use xlink:href="#DejaVuSans-73" transform="translate(372.802734 0)"/>
       <use xlink:href="#DejaVuSans-73" transform="translate(424.902344 0)"/>
       <use xlink:href="#DejaVuSans-69" transform="translate(477.001953 0)"/>
       <use xlink:href="#DejaVuSans-6e" transform="translate(504.785156 0)"/>
       <use xlink:href="#DejaVuSans-67" transform="translate(568.164062 0)"/>
       <use xlink:href="#DejaVuSans-20" transform="translate(631.640625 0)"/>
       <use xlink:href="#DejaVuSans-73" transform="translate(663.427734 0)"/>
       <use xlink:href="#DejaVuSans-65" transform="translate(715.527344 0)"/>
       <use xlink:href="#DejaVuSans-67" transform="translate(777.050781 0)"/>
       <use xlink:href="#DejaVuSans-6d" transform="translate(840.527344 0)"/>
       <use xlink:href="#DejaVuSans-65" transform="translate(937.939453 0)"/>
       <use xlink:href="#DejaVuSans-6e" transform="translate(999.462891 0)"/>
       <use xlink:href="#DejaVuSans-74" transform="translate(1062.841797 0)"/>
      </g>
     </g>
    </g>
    <g id="xtick_10">
     <g id="line2d_10">
      <g>
       <use xlink:href="#m5a0267639e" x="773.586811" y="373.482563" style="stroke: #000000; stroke-width: 0.8"/>
      </g>
     </g>
     <g id="text_10">
      <!-- long gap -->
      <g style="fill: #ffffff" transform="translate(741.296338 416.675382) rotate(-45) scale(0.1 -0.1)">
       <use xlink:href="#DejaVuSans-6c"/>
       <use xlink:href="#DejaVuSans-6f" transform="translate(27.783203 0)"/>
       <use xlink:href="#DejaVuSans-6e" transform="translate(88.964844 0)"/>
       <use xlink:href="#DejaVuSans-67" transform="translate(152.34375 0)"/>
       <use xlink:href="#DejaVuSans-20" transform="translate(215.820312 0)"/>
       <use xlink:href="#DejaVuSans-67" transform="translate(247.607422 0)"/>
       <use xlink:href="#DejaVuSans-61" transform="translate(311.083984 0)"/>
       <use xlink:href="#DejaVuSans-70" transform="translate(372.363281 0)"/>
      </g>
     </g>
    </g>
    <g id="xtick_11">
     <g id="line2d_11">
      <g>
       <use xlink:href="#m5a0267639e" x="845.80715" y="373.482563" style="stroke: #000000; stroke-width: 0.8"/>
      </g>
     </g>
     <g id="text_11">
      <!-- high invalid data -->
      <g style="fill: #ffffff" transform="translate(785.116396 445.075663) rotate(-45) scale(0.1 -0.1)">
       <defs>
        <path id="DejaVuSans-76" d="M 191 3500 
L 800 3500 
L 1894 563 
L 2988 3500 
L 3597 3500 
L 2284 0 
L 1503 0 
L 191 3500 
z
" transform="scale(0.015625)"/>
       </defs>
       <use xlink:href="#DejaVuSans-68"/>
       <use xlink:href="#DejaVuSans-69" transform="translate(63.378906 0)"/>
       <use xlink:href="#DejaVuSans-67" transform="translate(91.162109 0)"/>
       <use xlink:href="#DejaVuSans-68" transform="translate(154.638672 0)"/>
       <use xlink:href="#DejaVuSans-20" transform="translate(218.017578 0)"/>
       <use xlink:href="#DejaVuSans-69" transform="translate(249.804688 0)"/>
       <use xlink:href="#DejaVuSans-6e" transform="translate(277.587891 0)"/>
       <use xlink:href="#DejaVuSans-76" transform="translate(340.966797 0)"/>
       <use xlink:href="#DejaVuSans-61" transform="translate(400.146484 0)"/>
       <use xlink:href="#DejaVuSans-6c" transform="translate(461.425781 0)"/>
       <use xlink:href="#DejaVuSans-69" transform="translate(489.208984 0)"/>
       <use xlink:href="#DejaVuSans-64" transform="translate(516.992188 0)"/>
       <use xlink:href="#DejaVuSans-20" transform="translate(580.46875 0)"/>
       <use xlink:href="#DejaVuSans-64" transform="translate(612.255859 0)"/>
       <use xlink:href="#DejaVuSans-61" transform="translate(675.732422 0)"/>
       <use xlink:href="#DejaVuSans-74" transform="translate(737.011719 0)"/>
       <use xlink:href="#DejaVuSans-61" transform="translate(776.220703 0)"/>
      </g>
     </g>
    </g>
    <g id="xtick_12">
     <g id="line2d_12">
      <g>
       <use xlink:href="#m5a0267639e" x="918.027489" y="373.482563" style="stroke: #000000; stroke-width: 0.8"/>
      </g>
     </g>
     <g id="text_12">
      <!-- all vitals -->
      <g style="fill: #ffffff" transform="translate(887.144601 415.267798) rotate(-45) scale(0.1 -0.1)">
       <use xlink:href="#DejaVuSans-61"/>
       <use xlink:href="#DejaVuSans-6c" transform="translate(61.279297 0)"/>
       <use xlink:href="#DejaVuSans-6c" transform="translate(89.0625 0)"/>
       <use xlink:href="#DejaVuSans-20" transform="translate(116.845703 0)"/>
       <use xlink:href="#DejaVuSans-76" transform="translate(148.632812 0)"/>
       <use xlink:href="#DejaVuSans-69" transform="translate(207.8125 0)"/>
       <use xlink:href="#DejaVuSans-74" transform="translate(235.595703 0)"/>
       <use xlink:href="#DejaVuSans-61" transform="translate(274.804688 0)"/>
       <use xlink:href="#DejaVuSans-6c" transform="translate(336.083984 0)"/>
       <use xlink:href="#DejaVuSans-73" transform="translate(363.867188 0)"/>
      </g>
     </g>
    </g>
    <g id="text_13">
     <!-- Filter Name -->
     <g style="fill: #ffffff" transform="translate(486.346563 484.455071) scale(0.12 -0.12)">
      <defs>
       <path id="DejaVuSans-46" d="M 628 4666 
L 3309 4666 
L 3309 4134 
L 1259 4134 
L 1259 2759 
L 3109 2759 
L 3109 2228 
L 1259 2228 
L 1259 0 
L 628 0 
L 628 4666 
z
" transform="scale(0.015625)"/>
       <path id="DejaVuSans-4e" d="M 628 4666 
L 1478 4666 
L 3547 763 
L 3547 4666 
L 4159 4666 
L 4159 0 
L 3309 0 
L 1241 3903 
L 1241 0 
L 628 0 
L 628 4666 
z
" transform="scale(0.015625)"/>
      </defs>
      <use xlink:href="#DejaVuSans-46"/>
      <use xlink:href="#DejaVuSans-69" transform="translate(50.269531 0)"/>
      <use xlink:href="#DejaVuSans-6c" transform="translate(78.052734 0)"/>
      <use xlink:href="#DejaVuSans-74" transform="translate(105.835938 0)"/>
      <use xlink:href="#DejaVuSans-65" transform="translate(145.044922 0)"/>
      <use xlink:href="#DejaVuSans-72" transform="translate(206.568359 0)"/>
      <use xlink:href="#DejaVuSans-20" transform="translate(247.681641 0)"/>
      <use xlink:href="#DejaVuSans-4e" transform="translate(279.46875 0)"/>
      <use xlink:href="#DejaVuSans-61" transform="translate(354.273438 0)"/>
      <use xlink:href="#DejaVuSans-6d" transform="translate(415.552734 0)"/>
      <use xlink:href="#DejaVuSans-65" transform="translate(512.964844 0)"/>
     </g>
    </g>
   </g>
   <g id="matplotlib.axis_2">
    <g id="ytick_1">
     <g id="line2d_13">
      <path d="M 52.105625 373.482563 
L 989.525625 373.482563 
" clip-path="url(#p2905fb1e5e)" style="fill: none; stroke-dasharray: 1.85,0.8; stroke-dashoffset: 0; stroke: #808080; stroke-opacity: 0.2; stroke-width: 0.5"/>
     </g>
     <g id="line2d_14">
      <defs>
       <path id="mc6cc16627f" d="M 0 0 
L -3.5 0 
" style="stroke: #ffffff; stroke-width: 0.8"/>
      </defs>
      <g>
       <use xlink:href="#mc6cc16627f" x="52.105625" y="373.482563" style="fill: #ffffff; stroke: #ffffff; stroke-width: 0.8"/>
      </g>
     </g>
     <g id="text_14">
      <!-- 0.0 -->
      <g style="fill: #ffffff" transform="translate(29.2025 377.281782) scale(0.1 -0.1)">
       <defs>
        <path id="DejaVuSans-30" d="M 2034 4250 
Q 1547 4250 1301 3770 
Q 1056 3291 1056 2328 
Q 1056 1369 1301 889 
Q 1547 409 2034 409 
Q 2525 409 2770 889 
Q 3016 1369 3016 2328 
Q 3016 3291 2770 3770 
Q 2525 4250 2034 4250 
z
M 2034 4750 
Q 2819 4750 3233 4129 
Q 3647 3509 3647 2328 
Q 3647 1150 3233 529 
Q 2819 -91 2034 -91 
Q 1250 -91 836 529 
Q 422 1150 422 2328 
Q 422 3509 836 4129 
Q 1250 4750 2034 4750 
z
" transform="scale(0.015625)"/>
        <path id="DejaVuSans-2e" d="M 684 794 
L 1344 794 
L 1344 0 
L 684 0 
L 684 794 
z
" transform="scale(0.015625)"/>
       </defs>
       <use xlink:href="#DejaVuSans-30"/>
       <use xlink:href="#DejaVuSans-2e" transform="translate(63.623047 0)"/>
       <use xlink:href="#DejaVuSans-30" transform="translate(95.410156 0)"/>
      </g>
     </g>
    </g>
    <g id="ytick_2">
     <g id="line2d_15">
      <path d="M 52.105625 329.604301 
L 989.525625 329.604301 
" clip-path="url(#p2905fb1e5e)" style="fill: none; stroke-dasharray: 1.85,0.8; stroke-dashoffset: 0; stroke: #808080; stroke-opacity: 0.2; stroke-width: 0.5"/>
     </g>
     <g id="line2d_16">
      <g>
       <use xlink:href="#mc6cc16627f" x="52.105625" y="329.604301" style="fill: #ffffff; stroke: #ffffff; stroke-width: 0.8"/>
      </g>
     </g>
     <g id="text_15">
      <!-- 2.5 -->
      <g style="fill: #ffffff" transform="translate(29.2025 333.40352) scale(0.1 -0.1)">
       <defs>
        <path id="DejaVuSans-32" d="M 1228 531 
L 3431 531 
L 3431 0 
L 469 0 
L 469 531 
Q 828 903 1448 1529 
Q 2069 2156 2228 2338 
Q 2531 2678 2651 2914 
Q 2772 3150 2772 3378 
Q 2772 3750 2511 3984 
Q 2250 4219 1831 4219 
Q 1534 4219 1204 4116 
Q 875 4013 500 3803 
L 500 4441 
Q 881 4594 1212 4672 
Q 1544 4750 1819 4750 
Q 2544 4750 2975 4387 
Q 3406 4025 3406 3419 
Q 3406 3131 3298 2873 
Q 3191 2616 2906 2266 
Q 2828 2175 2409 1742 
Q 1991 1309 1228 531 
z
" transform="scale(0.015625)"/>
        <path id="DejaVuSans-35" d="M 691 4666 
L 3169 4666 
L 3169 4134 
L 1269 4134 
L 1269 2991 
Q 1406 3038 1543 3061 
Q 1681 3084 1819 3084 
Q 2600 3084 3056 2656 
Q 3513 2228 3513 1497 
Q 3513 744 3044 326 
Q 2575 -91 1722 -91 
Q 1428 -91 1123 -41 
Q 819 9 494 109 
L 494 744 
Q 775 591 1075 516 
Q 1375 441 1709 441 
Q 2250 441 2565 725 
Q 2881 1009 2881 1497 
Q 2881 1984 2565 2268 
Q 2250 2553 1709 2553 
Q 1456 2553 1204 2497 
Q 953 2441 691 2322 
L 691 4666 
z
" transform="scale(0.015625)"/>
       </defs>
       <use xlink:href="#DejaVuSans-32"/>
       <use xlink:href="#DejaVuSans-2e" transform="translate(63.623047 0)"/>
       <use xlink:href="#DejaVuSans-35" transform="translate(95.410156 0)"/>
      </g>
     </g>
    </g>
    <g id="ytick_3">
     <g id="line2d_17">
      <path d="M 52.105625 285.726039 
L 989.525625 285.726039 
" clip-path="url(#p2905fb1e5e)" style="fill: none; stroke-dasharray: 1.85,0.8; stroke-dashoffset: 0; stroke: #808080; stroke-opacity: 0.2; stroke-width: 0.5"/>
     </g>
     <g id="line2d_18">
      <g>
       <use xlink:href="#mc6cc16627f" x="52.105625" y="285.726039" style="fill: #ffffff; stroke: #ffffff; stroke-width: 0.8"/>
      </g>
     </g>
     <g id="text_16">
      <!-- 5.0 -->
      <g style="fill: #ffffff" transform="translate(29.2025 289.525258) scale(0.1 -0.1)">
       <use xlink:href="#DejaVuSans-35"/>
       <use xlink:href="#DejaVuSans-2e" transform="translate(63.623047 0)"/>
       <use xlink:href="#DejaVuSans-30" transform="translate(95.410156 0)"/>
      </g>
     </g>
    </g>
    <g id="ytick_4">
     <g id="line2d_19">
      <path d="M 52.105625 241.847777 
L 989.525625 241.847777 
" clip-path="url(#p2905fb1e5e)" style="fill: none; stroke-dasharray: 1.85,0.8; stroke-dashoffset: 0; stroke: #808080; stroke-opacity: 0.2; stroke-width: 0.5"/>
     </g>
     <g id="line2d_20">
      <g>
       <use xlink:href="#mc6cc16627f" x="52.105625" y="241.847777" style="fill: #ffffff; stroke: #ffffff; stroke-width: 0.8"/>
      </g>
     </g>
     <g id="text_17">
      <!-- 7.5 -->
      <g style="fill: #ffffff" transform="translate(29.2025 245.646996) scale(0.1 -0.1)">
       <defs>
        <path id="DejaVuSans-37" d="M 525 4666 
L 3525 4666 
L 3525 4397 
L 1831 0 
L 1172 0 
L 2766 4134 
L 525 4134 
L 525 4666 
z
" transform="scale(0.015625)"/>
       </defs>
       <use xlink:href="#DejaVuSans-37"/>
       <use xlink:href="#DejaVuSans-2e" transform="translate(63.623047 0)"/>
       <use xlink:href="#DejaVuSans-35" transform="translate(95.410156 0)"/>
      </g>
     </g>
    </g>
    <g id="ytick_5">
     <g id="line2d_21">
      <path d="M 52.105625 197.969515 
L 989.525625 197.969515 
" clip-path="url(#p2905fb1e5e)" style="fill: none; stroke-dasharray: 1.85,0.8; stroke-dashoffset: 0; stroke: #808080; stroke-opacity: 0.2; stroke-width: 0.5"/>
     </g>
     <g id="line2d_22">
      <g>
       <use xlink:href="#mc6cc16627f" x="52.105625" y="197.969515" style="fill: #ffffff; stroke: #ffffff; stroke-width: 0.8"/>
      </g>
     </g>
     <g id="text_18">
      <!-- 10.0 -->
      <g style="fill: #ffffff" transform="translate(22.84 201.768734) scale(0.1 -0.1)">
       <defs>
        <path id="DejaVuSans-31" d="M 794 531 
L 1825 531 
L 1825 4091 
L 703 3866 
L 703 4441 
L 1819 4666 
L 2450 4666 
L 2450 531 
L 3481 531 
L 3481 0 
L 794 0 
L 794 531 
z
" transform="scale(0.015625)"/>
       </defs>
       <use xlink:href="#DejaVuSans-31"/>
       <use xlink:href="#DejaVuSans-30" transform="translate(63.623047 0)"/>
       <use xlink:href="#DejaVuSans-2e" transform="translate(127.246094 0)"/>
       <use xlink:href="#DejaVuSans-30" transform="translate(159.033203 0)"/>
      </g>
     </g>
    </g>
    <g id="ytick_6">
     <g id="line2d_23">
      <path d="M 52.105625 154.091253 
L 989.525625 154.091253 
" clip-path="url(#p2905fb1e5e)" style="fill: none; stroke-dasharray: 1.85,0.8; stroke-dashoffset: 0; stroke: #808080; stroke-opacity: 0.2; stroke-width: 0.5"/>
     </g>
     <g id="line2d_24">
      <g>
       <use xlink:href="#mc6cc16627f" x="52.105625" y="154.091253" style="fill: #ffffff; stroke: #ffffff; stroke-width: 0.8"/>
      </g>
     </g>
     <g id="text_19">
      <!-- 12.5 -->
      <g style="fill: #ffffff" transform="translate(22.84 157.890471) scale(0.1 -0.1)">
       <use xlink:href="#DejaVuSans-31"/>
       <use xlink:href="#DejaVuSans-32" transform="translate(63.623047 0)"/>
       <use xlink:href="#DejaVuSans-2e" transform="translate(127.246094 0)"/>
       <use xlink:href="#DejaVuSans-35" transform="translate(159.033203 0)"/>
      </g>
     </g>
    </g>
    <g id="ytick_7">
     <g id="line2d_25">
      <path d="M 52.105625 110.212991 
L 989.525625 110.212991 
" clip-path="url(#p2905fb1e5e)" style="fill: none; stroke-dasharray: 1.85,0.8; stroke-dashoffset: 0; stroke: #808080; stroke-opacity: 0.2; stroke-width: 0.5"/>
     </g>
     <g id="line2d_26">
      <g>
       <use xlink:href="#mc6cc16627f" x="52.105625" y="110.212991" style="fill: #ffffff; stroke: #ffffff; stroke-width: 0.8"/>
      </g>
     </g>
     <g id="text_20">
      <!-- 15.0 -->
      <g style="fill: #ffffff" transform="translate(22.84 114.012209) scale(0.1 -0.1)">
       <use xlink:href="#DejaVuSans-31"/>
       <use xlink:href="#DejaVuSans-35" transform="translate(63.623047 0)"/>
       <use xlink:href="#DejaVuSans-2e" transform="translate(127.246094 0)"/>
       <use xlink:href="#DejaVuSans-30" transform="translate(159.033203 0)"/>
      </g>
     </g>
    </g>
    <g id="ytick_8">
     <g id="line2d_27">
      <path d="M 52.105625 66.334728 
L 989.525625 66.334728 
" clip-path="url(#p2905fb1e5e)" style="fill: none; stroke-dasharray: 1.85,0.8; stroke-dashoffset: 0; stroke: #808080; stroke-opacity: 0.2; stroke-width: 0.5"/>
     </g>
     <g id="line2d_28">
      <g>
       <use xlink:href="#mc6cc16627f" x="52.105625" y="66.334728" style="fill: #ffffff; stroke: #ffffff; stroke-width: 0.8"/>
      </g>
     </g>
     <g id="text_21">
      <!-- 17.5 -->
      <g style="fill: #ffffff" transform="translate(22.84 70.133947) scale(0.1 -0.1)">
       <use xlink:href="#DejaVuSans-31"/>
       <use xlink:href="#DejaVuSans-37" transform="translate(63.623047 0)"/>
       <use xlink:href="#DejaVuSans-2e" transform="translate(127.246094 0)"/>
       <use xlink:href="#DejaVuSans-35" transform="translate(159.033203 0)"/>
      </g>
     </g>
    </g>
    <g id="ytick_9">
     <g id="line2d_29">
      <path d="M 52.105625 22.456466 
L 989.525625 22.456466 
" clip-path="url(#p2905fb1e5e)" style="fill: none; stroke-dasharray: 1.85,0.8; stroke-dashoffset: 0; stroke: #808080; stroke-opacity: 0.2; stroke-width: 0.5"/>
     </g>
     <g id="line2d_30">
      <g>
       <use xlink:href="#mc6cc16627f" x="52.105625" y="22.456466" style="fill: #ffffff; stroke: #ffffff; stroke-width: 0.8"/>
      </g>
     </g>
     <g id="text_22">
      <!-- 20.0 -->
      <g style="fill: #ffffff" transform="translate(22.84 26.255685) scale(0.1 -0.1)">
       <use xlink:href="#DejaVuSans-32"/>
       <use xlink:href="#DejaVuSans-30" transform="translate(63.623047 0)"/>
       <use xlink:href="#DejaVuSans-2e" transform="translate(127.246094 0)"/>
       <use xlink:href="#DejaVuSans-30" transform="translate(159.033203 0)"/>
      </g>
     </g>
    </g>
    <g id="text_23">
     <!-- $-\log_{10}(p\text{-value})$ -->
     <g style="fill: #ffffff" transform="translate(16.32 245.660344) rotate(-90) scale(0.12 -0.12)">
      <defs>
       <path id="DejaVuSans-2212" d="M 678 2272 
L 4684 2272 
L 4684 1741 
L 678 1741 
L 678 2272 
z
" transform="scale(0.015625)"/>
       <path id="DejaVuSans-28" d="M 1984 4856 
Q 1566 4138 1362 3434 
Q 1159 2731 1159 2009 
Q 1159 1288 1364 580 
Q 1569 -128 1984 -844 
L 1484 -844 
Q 1016 -109 783 600 
Q 550 1309 550 2009 
Q 550 2706 781 3412 
Q 1013 4119 1484 4856 
L 1984 4856 
z
" transform="scale(0.015625)"/>
       <path id="DejaVuSans-Oblique-70" d="M 3175 2156 
Q 3175 2616 2975 2859 
Q 2775 3103 2400 3103 
Q 2144 3103 1911 2972 
Q 1678 2841 1497 2591 
Q 1319 2344 1212 1994 
Q 1106 1644 1106 1300 
Q 1106 863 1306 627 
Q 1506 391 1875 391 
Q 2147 391 2380 519 
Q 2613 647 2778 891 
Q 2956 1147 3065 1494 
Q 3175 1841 3175 2156 
z
M 1394 2969 
Q 1625 3272 1939 3428 
Q 2253 3584 2638 3584 
Q 3175 3584 3472 3232 
Q 3769 2881 3769 2247 
Q 3769 1728 3584 1258 
Q 3400 788 3053 416 
Q 2822 169 2531 39 
Q 2241 -91 1919 -91 
Q 1547 -91 1294 64 
Q 1041 219 916 525 
L 556 -1331 
L -19 -1331 
L 922 3500 
L 1497 3500 
L 1394 2969 
z
" transform="scale(0.015625)"/>
       <path id="DejaVuSans-2d" d="M 313 2009 
L 1997 2009 
L 1997 1497 
L 313 1497 
L 313 2009 
z
" transform="scale(0.015625)"/>
       <path id="DejaVuSans-29" d="M 513 4856 
L 1013 4856 
Q 1481 4119 1714 3412 
Q 1947 2706 1947 2009 
Q 1947 1309 1714 600 
Q 1481 -109 1013 -844 
L 513 -844 
Q 928 -128 1133 580 
Q 1338 1288 1338 2009 
Q 1338 2731 1133 3434 
Q 928 4138 513 4856 
z
" transform="scale(0.015625)"/>
      </defs>
      <use xlink:href="#DejaVuSans-2212" transform="translate(0 0.015625)"/>
      <use xlink:href="#DejaVuSans-6c" transform="translate(83.789062 0.015625)"/>
      <use xlink:href="#DejaVuSans-6f" transform="translate(111.572266 0.015625)"/>
      <use xlink:href="#DejaVuSans-67" transform="translate(172.753906 0.015625)"/>
      <use xlink:href="#DejaVuSans-31" transform="translate(237.1875 -16.390625) scale(0.7)"/>
      <use xlink:href="#DejaVuSans-30" transform="translate(281.723633 -16.390625) scale(0.7)"/>
      <use xlink:href="#DejaVuSans-28" transform="translate(345.229817 0.015625)"/>
      <use xlink:href="#DejaVuSans-Oblique-70" transform="translate(384.243489 0.015625)"/>
      <use xlink:href="#DejaVuSans-2d" transform="translate(447.720051 0.015625)"/>
      <use xlink:href="#DejaVuSans-76" transform="translate(483.804036 0.015625)"/>
      <use xlink:href="#DejaVuSans-61" transform="translate(542.983723 0.015625)"/>
      <use xlink:href="#DejaVuSans-6c" transform="translate(604.26302 0.015625)"/>
      <use xlink:href="#DejaVuSans-75" transform="translate(632.046223 0.015625)"/>
      <use xlink:href="#DejaVuSans-65" transform="translate(695.425129 0.015625)"/>
      <use xlink:href="#DejaVuSans-29" transform="translate(756.948567 0.015625)"/>
     </g>
    </g>
   </g>
   <g id="patch_3">
    <path d="M 52.105625 373.482563 
L 52.105625 22.318125 
" style="fill: none; stroke: #444444; stroke-width: 0.8; stroke-linejoin: miter; stroke-linecap: square"/>
   </g>
   <g id="patch_4">
    <path d="M 52.105625 373.482563 
L 989.525625 373.482563 
" style="fill: none; stroke: #444444; stroke-width: 0.8; stroke-linejoin: miter; stroke-linecap: square"/>
   </g>
   <g id="patch_5">
    <path d="M 94.715625 373.482563 
L 152.491896 373.482563 
L 152.491896 364.022265 
L 94.715625 364.022265 
z
" clip-path="url(#p2905fb1e5e)" style="fill: #a0a0a0; opacity: 0.85"/>
   </g>
   <g id="patch_6">
    <path d="M 166.935964 373.482563 
L 224.712235 373.482563 
L 224.712235 371.329323 
L 166.935964 371.329323 
z
" clip-path="url(#p2905fb1e5e)" style="fill: #a0a0a0; opacity: 0.85"/>
   </g>
   <g id="patch_7">
    <path d="M 239.156303 373.482563 
L 296.932574 373.482563 
L 296.932574 373.482563 
L 239.156303 373.482563 
z
" clip-path="url(#p2905fb1e5e)" style="fill: #a0a0a0; opacity: 0.85"/>
   </g>
   <g id="patch_8">
    <path d="M 311.376642 373.482563 
L 369.152913 373.482563 
L 369.152913 373.482563 
L 311.376642 373.482563 
z
" clip-path="url(#p2905fb1e5e)" style="fill: #a0a0a0; opacity: 0.85"/>
   </g>
   <g id="patch_9">
    <path d="M 383.596981 373.482563 
L 441.373252 373.482563 
L 441.373252 364.022265 
L 383.596981 364.022265 
z
" clip-path="url(#p2905fb1e5e)" style="fill: #a0a0a0; opacity: 0.85"/>
   </g>
   <g id="patch_10">
    <path d="M 455.81732 373.482563 
L 513.593591 373.482563 
L 513.593591 357.632156 
L 455.81732 357.632156 
z
" clip-path="url(#p2905fb1e5e)" style="fill: #a0a0a0; opacity: 0.85"/>
   </g>
   <g id="patch_11">
    <path d="M 528.037659 373.482563 
L 585.81393 373.482563 
L 585.81393 371.329323 
L 528.037659 371.329323 
z
" clip-path="url(#p2905fb1e5e)" style="fill: #a0a0a0; opacity: 0.85"/>
   </g>
   <g id="patch_12">
    <path d="M 600.257998 373.482563 
L 658.034269 373.482563 
L 658.034269 39.040241 
L 600.257998 39.040241 
z
" clip-path="url(#p2905fb1e5e)" style="fill: #f39c12; opacity: 0.85"/>
   </g>
   <g id="patch_13">
    <path d="M 672.478337 373.482563 
L 730.254608 373.482563 
L 730.254608 373.482563 
L 672.478337 373.482563 
z
" clip-path="url(#p2905fb1e5e)" style="fill: #a0a0a0; opacity: 0.85"/>
   </g>
   <g id="patch_14">
    <path d="M 744.698676 373.482563 
L 802.474947 373.482563 
L 802.474947 368.199094 
L 744.698676 368.199094 
z
" clip-path="url(#p2905fb1e5e)" style="fill: #a0a0a0; opacity: 0.85"/>
   </g>
   <g id="patch_15">
    <path d="M 816.919015 373.482563 
L 874.695286 373.482563 
L 874.695286 373.482563 
L 816.919015 373.482563 
z
" clip-path="url(#p2905fb1e5e)" style="fill: #a0a0a0; opacity: 0.85"/>
   </g>
   <g id="patch_16">
    <path d="M 889.139354 373.482563 
L 946.915625 373.482563 
L 946.915625 364.022265 
L 889.139354 364.022265 
z
" clip-path="url(#p2905fb1e5e)" style="fill: #a0a0a0; opacity: 0.85"/>
   </g>
   <g id="text_24">
    <!-- 0.289 -->
    <g style="fill: #a0a0a0" transform="translate(110.721104 360.395416) scale(0.09 -0.09)">
     <defs>
      <path id="DejaVuSans-38" d="M 2034 2216 
Q 1584 2216 1326 1975 
Q 1069 1734 1069 1313 
Q 1069 891 1326 650 
Q 1584 409 2034 409 
Q 2484 409 2743 651 
Q 3003 894 3003 1313 
Q 3003 1734 2745 1975 
Q 2488 2216 2034 2216 
z
M 1403 2484 
Q 997 2584 770 2862 
Q 544 3141 544 3541 
Q 544 4100 942 4425 
Q 1341 4750 2034 4750 
Q 2731 4750 3128 4425 
Q 3525 4100 3525 3541 
Q 3525 3141 3298 2862 
Q 3072 2584 2669 2484 
Q 3125 2378 3379 2068 
Q 3634 1759 3634 1313 
Q 3634 634 3220 271 
Q 2806 -91 2034 -91 
Q 1263 -91 848 271 
Q 434 634 434 1313 
Q 434 1759 690 2068 
Q 947 2378 1403 2484 
z
M 1172 3481 
Q 1172 3119 1398 2916 
Q 1625 2713 2034 2713 
Q 2441 2713 2670 2916 
Q 2900 3119 2900 3481 
Q 2900 3844 2670 4047 
Q 2441 4250 2034 4250 
Q 1625 4250 1398 4047 
Q 1172 3844 1172 3481 
z
" transform="scale(0.015625)"/>
      <path id="DejaVuSans-39" d="M 703 97 
L 703 672 
Q 941 559 1184 500 
Q 1428 441 1663 441 
Q 2288 441 2617 861 
Q 2947 1281 2994 2138 
Q 2813 1869 2534 1725 
Q 2256 1581 1919 1581 
Q 1219 1581 811 2004 
Q 403 2428 403 3163 
Q 403 3881 828 4315 
Q 1253 4750 1959 4750 
Q 2769 4750 3195 4129 
Q 3622 3509 3622 2328 
Q 3622 1225 3098 567 
Q 2575 -91 1691 -91 
Q 1453 -91 1209 -44 
Q 966 3 703 97 
z
M 1959 2075 
Q 2384 2075 2632 2365 
Q 2881 2656 2881 3163 
Q 2881 3666 2632 3958 
Q 2384 4250 1959 4250 
Q 1534 4250 1286 3958 
Q 1038 3666 1038 3163 
Q 1038 2656 1286 2365 
Q 1534 2075 1959 2075 
z
" transform="scale(0.015625)"/>
     </defs>
     <use xlink:href="#DejaVuSans-30"/>
     <use xlink:href="#DejaVuSans-2e" transform="translate(63.623047 0)"/>
     <use xlink:href="#DejaVuSans-32" transform="translate(95.410156 0)"/>
     <use xlink:href="#DejaVuSans-38" transform="translate(159.033203 0)"/>
     <use xlink:href="#DejaVuSans-39" transform="translate(222.65625 0)"/>
    </g>
   </g>
   <g id="text_25">
    <!-- 0.754 -->
    <g style="fill: #a0a0a0" transform="translate(182.941443 367.702473) scale(0.09 -0.09)">
     <defs>
      <path id="DejaVuSans-34" d="M 2419 4116 
L 825 1625 
L 2419 1625 
L 2419 4116 
z
M 2253 4666 
L 3047 4666 
L 3047 1625 
L 3713 1625 
L 3713 1100 
L 3047 1100 
L 3047 0 
L 2419 0 
L 2419 1100 
L 313 1100 
L 313 1709 
L 2253 4666 
z
" transform="scale(0.015625)"/>
     </defs>
     <use xlink:href="#DejaVuSans-30"/>
     <use xlink:href="#DejaVuSans-2e" transform="translate(63.623047 0)"/>
     <use xlink:href="#DejaVuSans-37" transform="translate(95.410156 0)"/>
     <use xlink:href="#DejaVuSans-35" transform="translate(159.033203 0)"/>
     <use xlink:href="#DejaVuSans-34" transform="translate(222.65625 0)"/>
    </g>
   </g>
   <g id="text_26">
    <!-- 1.000 -->
    <g style="fill: #a0a0a0" transform="translate(255.161782 369.855714) scale(0.09 -0.09)">
     <use xlink:href="#DejaVuSans-31"/>
     <use xlink:href="#DejaVuSans-2e" transform="translate(63.623047 0)"/>
     <use xlink:href="#DejaVuSans-30" transform="translate(95.410156 0)"/>
     <use xlink:href="#DejaVuSans-30" transform="translate(159.033203 0)"/>
     <use xlink:href="#DejaVuSans-30" transform="translate(222.65625 0)"/>
    </g>
   </g>
   <g id="text_27">
    <!-- 1.000 -->
    <g style="fill: #a0a0a0" transform="translate(327.382121 369.855714) scale(0.09 -0.09)">
     <use xlink:href="#DejaVuSans-31"/>
     <use xlink:href="#DejaVuSans-2e" transform="translate(63.623047 0)"/>
     <use xlink:href="#DejaVuSans-30" transform="translate(95.410156 0)"/>
     <use xlink:href="#DejaVuSans-30" transform="translate(159.033203 0)"/>
     <use xlink:href="#DejaVuSans-30" transform="translate(222.65625 0)"/>
    </g>
   </g>
   <g id="text_28">
    <!-- 0.289 -->
    <g style="fill: #a0a0a0" transform="translate(399.60246 360.395416) scale(0.09 -0.09)">
     <use xlink:href="#DejaVuSans-30"/>
     <use xlink:href="#DejaVuSans-2e" transform="translate(63.623047 0)"/>
     <use xlink:href="#DejaVuSans-32" transform="translate(95.410156 0)"/>
     <use xlink:href="#DejaVuSans-38" transform="translate(159.033203 0)"/>
     <use xlink:href="#DejaVuSans-39" transform="translate(222.65625 0)"/>
    </g>
   </g>
   <g id="text_29">
    <!-- 0.125 -->
    <g style="fill: #a0a0a0" transform="translate(471.822799 354.005307) scale(0.09 -0.09)">
     <use xlink:href="#DejaVuSans-30"/>
     <use xlink:href="#DejaVuSans-2e" transform="translate(63.623047 0)"/>
     <use xlink:href="#DejaVuSans-31" transform="translate(95.410156 0)"/>
     <use xlink:href="#DejaVuSans-32" transform="translate(159.033203 0)"/>
     <use xlink:href="#DejaVuSans-35" transform="translate(222.65625 0)"/>
    </g>
   </g>
   <g id="text_30">
    <!-- 0.754 -->
    <g style="fill: #a0a0a0" transform="translate(544.043138 367.702473) scale(0.09 -0.09)">
     <use xlink:href="#DejaVuSans-30"/>
     <use xlink:href="#DejaVuSans-2e" transform="translate(63.623047 0)"/>
     <use xlink:href="#DejaVuSans-37" transform="translate(95.410156 0)"/>
     <use xlink:href="#DejaVuSans-35" transform="translate(159.033203 0)"/>
     <use xlink:href="#DejaVuSans-34" transform="translate(222.65625 0)"/>
    </g>
   </g>
   <g id="text_31">
    <!-- 8.8e-20 -->
    <g style="fill: #a0a0a0" transform="translate(611.871055 35.413392) scale(0.09 -0.09)">
     <use xlink:href="#DejaVuSans-38"/>
     <use xlink:href="#DejaVuSans-2e" transform="translate(63.623047 0)"/>
     <use xlink:href="#DejaVuSans-38" transform="translate(95.410156 0)"/>
     <use xlink:href="#DejaVuSans-65" transform="translate(159.033203 0)"/>
     <use xlink:href="#DejaVuSans-2d" transform="translate(220.556641 0)"/>
     <use xlink:href="#DejaVuSans-32" transform="translate(256.640625 0)"/>
     <use xlink:href="#DejaVuSans-30" transform="translate(320.263672 0)"/>
    </g>
   </g>
   <g id="text_32">
    <!-- 1.000 -->
    <g style="fill: #a0a0a0" transform="translate(688.483816 369.855714) scale(0.09 -0.09)">
     <use xlink:href="#DejaVuSans-31"/>
     <use xlink:href="#DejaVuSans-2e" transform="translate(63.623047 0)"/>
     <use xlink:href="#DejaVuSans-30" transform="translate(95.410156 0)"/>
     <use xlink:href="#DejaVuSans-30" transform="translate(159.033203 0)"/>
     <use xlink:href="#DejaVuSans-30" transform="translate(222.65625 0)"/>
    </g>
   </g>
   <g id="text_33">
    <!-- 0.500 -->
    <g style="fill: #a0a0a0" transform="translate(760.704155 364.572245) scale(0.09 -0.09)">
     <use xlink:href="#DejaVuSans-30"/>
     <use xlink:href="#DejaVuSans-2e" transform="translate(63.623047 0)"/>
     <use xlink:href="#DejaVuSans-35" transform="translate(95.410156 0)"/>
     <use xlink:href="#DejaVuSans-30" transform="translate(159.033203 0)"/>
     <use xlink:href="#DejaVuSans-30" transform="translate(222.65625 0)"/>
    </g>
   </g>
   <g id="text_34">
    <!-- 1.000 -->
    <g style="fill: #a0a0a0" transform="translate(832.924494 369.855714) scale(0.09 -0.09)">
     <use xlink:href="#DejaVuSans-31"/>
     <use xlink:href="#DejaVuSans-2e" transform="translate(63.623047 0)"/>
     <use xlink:href="#DejaVuSans-30" transform="translate(95.410156 0)"/>
     <use xlink:href="#DejaVuSans-30" transform="translate(159.033203 0)"/>
     <use xlink:href="#DejaVuSans-30" transform="translate(222.65625 0)"/>
    </g>
   </g>
   <g id="text_35">
    <!-- 0.289 -->
    <g style="fill: #a0a0a0" transform="translate(905.144833 360.395416) scale(0.09 -0.09)">
     <use xlink:href="#DejaVuSans-30"/>
     <use xlink:href="#DejaVuSans-2e" transform="translate(63.623047 0)"/>
     <use xlink:href="#DejaVuSans-32" transform="translate(95.410156 0)"/>
     <use xlink:href="#DejaVuSans-38" transform="translate(159.033203 0)"/>
     <use xlink:href="#DejaVuSans-39" transform="translate(222.65625 0)"/>
    </g>
   </g>
   <g id="text_36">
    <!-- MORTALITY McNemar Significance Using Standard Deviation Aggregation -->
    <g style="fill: #ffffff" transform="translate(301.529688 16.318125) scale(0.12 -0.12)">
     <defs>
      <path id="DejaVuSans-4d" d="M 628 4666 
L 1569 4666 
L 2759 1491 
L 3956 4666 
L 4897 4666 
L 4897 0 
L 4281 0 
L 4281 4097 
L 3078 897 
L 2444 897 
L 1241 4097 
L 1241 0 
L 628 0 
L 628 4666 
z
" transform="scale(0.015625)"/>
      <path id="DejaVuSans-4f" d="M 2522 4238 
Q 1834 4238 1429 3725 
Q 1025 3213 1025 2328 
Q 1025 1447 1429 934 
Q 1834 422 2522 422 
Q 3209 422 3611 934 
Q 4013 1447 4013 2328 
Q 4013 3213 3611 3725 
Q 3209 4238 2522 4238 
z
M 2522 4750 
Q 3503 4750 4090 4092 
Q 4678 3434 4678 2328 
Q 4678 1225 4090 567 
Q 3503 -91 2522 -91 
Q 1538 -91 948 565 
Q 359 1222 359 2328 
Q 359 3434 948 4092 
Q 1538 4750 2522 4750 
z
" transform="scale(0.015625)"/>
      <path id="DejaVuSans-52" d="M 2841 2188 
Q 3044 2119 3236 1894 
Q 3428 1669 3622 1275 
L 4263 0 
L 3584 0 
L 2988 1197 
Q 2756 1666 2539 1819 
Q 2322 1972 1947 1972 
L 1259 1972 
L 1259 0 
L 628 0 
L 628 4666 
L 2053 4666 
Q 2853 4666 3247 4331 
Q 3641 3997 3641 3322 
Q 3641 2881 3436 2590 
Q 3231 2300 2841 2188 
z
M 1259 4147 
L 1259 2491 
L 2053 2491 
Q 2509 2491 2742 2702 
Q 2975 2913 2975 3322 
Q 2975 3731 2742 3939 
Q 2509 4147 2053 4147 
L 1259 4147 
z
" transform="scale(0.015625)"/>
      <path id="DejaVuSans-54" d="M -19 4666 
L 3928 4666 
L 3928 4134 
L 2272 4134 
L 2272 0 
L 1638 0 
L 1638 4134 
L -19 4134 
L -19 4666 
z
" transform="scale(0.015625)"/>
      <path id="DejaVuSans-41" d="M 2188 4044 
L 1331 1722 
L 3047 1722 
L 2188 4044 
z
M 1831 4666 
L 2547 4666 
L 4325 0 
L 3669 0 
L 3244 1197 
L 1141 1197 
L 716 0 
L 50 0 
L 1831 4666 
z
" transform="scale(0.015625)"/>
      <path id="DejaVuSans-4c" d="M 628 4666 
L 1259 4666 
L 1259 531 
L 3531 531 
L 3531 0 
L 628 0 
L 628 4666 
z
" transform="scale(0.015625)"/>
      <path id="DejaVuSans-49" d="M 628 4666 
L 1259 4666 
L 1259 0 
L 628 0 
L 628 4666 
z
" transform="scale(0.015625)"/>
      <path id="DejaVuSans-59" d="M -13 4666 
L 666 4666 
L 1959 2747 
L 3244 4666 
L 3922 4666 
L 2272 2222 
L 2272 0 
L 1638 0 
L 1638 2222 
L -13 4666 
z
" transform="scale(0.015625)"/>
      <path id="DejaVuSans-53" d="M 3425 4513 
L 3425 3897 
Q 3066 4069 2747 4153 
Q 2428 4238 2131 4238 
Q 1616 4238 1336 4038 
Q 1056 3838 1056 3469 
Q 1056 3159 1242 3001 
Q 1428 2844 1947 2747 
L 2328 2669 
Q 3034 2534 3370 2195 
Q 3706 1856 3706 1288 
Q 3706 609 3251 259 
Q 2797 -91 1919 -91 
Q 1588 -91 1214 -16 
Q 841 59 441 206 
L 441 856 
Q 825 641 1194 531 
Q 1563 422 1919 422 
Q 2459 422 2753 634 
Q 3047 847 3047 1241 
Q 3047 1584 2836 1778 
Q 2625 1972 2144 2069 
L 1759 2144 
Q 1053 2284 737 2584 
Q 422 2884 422 3419 
Q 422 4038 858 4394 
Q 1294 4750 2059 4750 
Q 2388 4750 2728 4690 
Q 3069 4631 3425 4513 
z
" transform="scale(0.015625)"/>
      <path id="DejaVuSans-55" d="M 556 4666 
L 1191 4666 
L 1191 1831 
Q 1191 1081 1462 751 
Q 1734 422 2344 422 
Q 2950 422 3222 751 
Q 3494 1081 3494 1831 
L 3494 4666 
L 4128 4666 
L 4128 1753 
Q 4128 841 3676 375 
Q 3225 -91 2344 -91 
Q 1459 -91 1007 375 
Q 556 841 556 1753 
L 556 4666 
z
" transform="scale(0.015625)"/>
      <path id="DejaVuSans-44" d="M 1259 4147 
L 1259 519 
L 2022 519 
Q 2988 519 3436 956 
Q 3884 1394 3884 2338 
Q 3884 3275 3436 3711 
Q 2988 4147 2022 4147 
L 1259 4147 
z
M 628 4666 
L 1925 4666 
Q 3281 4666 3915 4102 
Q 4550 3538 4550 2338 
Q 4550 1131 3912 565 
Q 3275 0 1925 0 
L 628 0 
L 628 4666 
z
" transform="scale(0.015625)"/>
     </defs>
     <use xlink:href="#DejaVuSans-4d"/>
     <use xlink:href="#DejaVuSans-4f" transform="translate(86.279297 0)"/>
     <use xlink:href="#DejaVuSans-52" transform="translate(164.990234 0)"/>
     <use xlink:href="#DejaVuSans-54" transform="translate(227.222656 0)"/>
     <use xlink:href="#DejaVuSans-41" transform="translate(280.556641 0)"/>
     <use xlink:href="#DejaVuSans-4c" transform="translate(348.964844 0)"/>
     <use xlink:href="#DejaVuSans-49" transform="translate(404.677734 0)"/>
     <use xlink:href="#DejaVuSans-54" transform="translate(434.169922 0)"/>
     <use xlink:href="#DejaVuSans-59" transform="translate(495.253906 0)"/>
     <use xlink:href="#DejaVuSans-20" transform="translate(556.337891 0)"/>
     <use xlink:href="#DejaVuSans-4d" transform="translate(588.125 0)"/>
     <use xlink:href="#DejaVuSans-63" transform="translate(674.404297 0)"/>
     <use xlink:href="#DejaVuSans-4e" transform="translate(729.384766 0)"/>
     <use xlink:href="#DejaVuSans-65" transform="translate(804.189453 0)"/>
     <use xlink:href="#DejaVuSans-6d" transform="translate(865.712891 0)"/>
     <use xlink:href="#DejaVuSans-61" transform="translate(963.125 0)"/>
     <use xlink:href="#DejaVuSans-72" transform="translate(1024.404297 0)"/>
     <use xlink:href="#DejaVuSans-20" transform="translate(1065.517578 0)"/>
     <use xlink:href="#DejaVuSans-53" transform="translate(1097.304688 0)"/>
     <use xlink:href="#DejaVuSans-69" transform="translate(1160.78125 0)"/>
     <use xlink:href="#DejaVuSans-67" transform="translate(1188.564453 0)"/>
     <use xlink:href="#DejaVuSans-6e" transform="translate(1252.041016 0)"/>
     <use xlink:href="#DejaVuSans-69" transform="translate(1315.419922 0)"/>
     <use xlink:href="#DejaVuSans-66" transform="translate(1343.203125 0)"/>
     <use xlink:href="#DejaVuSans-69" transform="translate(1378.408203 0)"/>
     <use xlink:href="#DejaVuSans-63" transform="translate(1406.191406 0)"/>
     <use xlink:href="#DejaVuSans-61" transform="translate(1461.171875 0)"/>
     <use xlink:href="#DejaVuSans-6e" transform="translate(1522.451172 0)"/>
     <use xlink:href="#DejaVuSans-63" transform="translate(1585.830078 0)"/>
     <use xlink:href="#DejaVuSans-65" transform="translate(1640.810547 0)"/>
     <use xlink:href="#DejaVuSans-20" transform="translate(1702.333984 0)"/>
     <use xlink:href="#DejaVuSans-55" transform="translate(1734.121094 0)"/>
     <use xlink:href="#DejaVuSans-73" transform="translate(1807.314453 0)"/>
     <use xlink:href="#DejaVuSans-69" transform="translate(1859.414062 0)"/>
     <use xlink:href="#DejaVuSans-6e" transform="translate(1887.197266 0)"/>
     <use xlink:href="#DejaVuSans-67" transform="translate(1950.576172 0)"/>
     <use xlink:href="#DejaVuSans-20" transform="translate(2014.052734 0)"/>
     <use xlink:href="#DejaVuSans-53" transform="translate(2045.839844 0)"/>
     <use xlink:href="#DejaVuSans-74" transform="translate(2109.316406 0)"/>
     <use xlink:href="#DejaVuSans-61" transform="translate(2148.525391 0)"/>
     <use xlink:href="#DejaVuSans-6e" transform="translate(2209.804688 0)"/>
     <use xlink:href="#DejaVuSans-64" transform="translate(2273.183594 0)"/>
     <use xlink:href="#DejaVuSans-61" transform="translate(2336.660156 0)"/>
     <use xlink:href="#DejaVuSans-72" transform="translate(2397.939453 0)"/>
     <use xlink:href="#DejaVuSans-64" transform="translate(2437.302734 0)"/>
     <use xlink:href="#DejaVuSans-20" transform="translate(2500.779297 0)"/>
     <use xlink:href="#DejaVuSans-44" transform="translate(2532.566406 0)"/>
     <use xlink:href="#DejaVuSans-65" transform="translate(2609.568359 0)"/>
     <use xlink:href="#DejaVuSans-76" transform="translate(2671.091797 0)"/>
     <use xlink:href="#DejaVuSans-69" transform="translate(2730.271484 0)"/>
     <use xlink:href="#DejaVuSans-61" transform="translate(2758.054688 0)"/>
     <use xlink:href="#DejaVuSans-74" transform="translate(2819.333984 0)"/>
     <use xlink:href="#DejaVuSans-69" transform="translate(2858.542969 0)"/>
     <use xlink:href="#DejaVuSans-6f" transform="translate(2886.326172 0)"/>
     <use xlink:href="#DejaVuSans-6e" transform="translate(2947.507812 0)"/>
     <use xlink:href="#DejaVuSans-20" transform="translate(3010.886719 0)"/>
     <use xlink:href="#DejaVuSans-41" transform="translate(3042.673828 0)"/>
     <use xlink:href="#DejaVuSans-67" transform="translate(3111.082031 0)"/>
     <use xlink:href="#DejaVuSans-67" transform="translate(3174.558594 0)"/>
     <use xlink:href="#DejaVuSans-72" transform="translate(3238.035156 0)"/>
     <use xlink:href="#DejaVuSans-65" transform="translate(3276.898438 0)"/>
     <use xlink:href="#DejaVuSans-67" transform="translate(3338.421875 0)"/>
     <use xlink:href="#DejaVuSans-61" transform="translate(3401.898438 0)"/>
     <use xlink:href="#DejaVuSans-74" transform="translate(3463.177734 0)"/>
     <use xlink:href="#DejaVuSans-69" transform="translate(3502.386719 0)"/>
     <use xlink:href="#DejaVuSans-6f" transform="translate(3530.169922 0)"/>
     <use xlink:href="#DejaVuSans-6e" transform="translate(3591.351562 0)"/>
    </g>
   </g>
   <g id="line2d_31">
    <path d="M 52.105625 350.647789 
L 989.525625 350.647789 
" clip-path="url(#p2905fb1e5e)" style="fill: none; stroke-dasharray: 5.55,2.4; stroke-dashoffset: 0; stroke: #bd3140; stroke-width: 1.5"/>
   </g>
   <g id="legend_1">
    <g id="patch_17">
     <path d="M 854.720938 44.99625 
L 982.525625 44.99625 
Q 984.525625 44.99625 984.525625 42.99625 
L 984.525625 29.318125 
Q 984.525625 27.318125 982.525625 27.318125 
L 854.720938 27.318125 
Q 852.720938 27.318125 852.720938 29.318125 
L 852.720938 42.99625 
Q 852.720938 44.99625 854.720938 44.99625 
z
" style="fill: #191a1c; opacity: 0.8; stroke: #ffffff; stroke-linejoin: miter"/>
    </g>
    <g id="line2d_32">
     <path d="M 856.720938 35.416563 
L 866.720938 35.416563 
L 876.720938 35.416563 
" style="fill: none; stroke-dasharray: 5.55,2.4; stroke-dashoffset: 0; stroke: #bd3140; stroke-width: 1.5"/>
    </g>
    <g id="text_37">
     <!-- p = 0.05 Threshold -->
     <g style="fill: #ffffff" transform="translate(884.720938 38.916563) scale(0.1 -0.1)">
      <defs>
       <path id="DejaVuSans-3d" d="M 678 2906 
L 4684 2906 
L 4684 2381 
L 678 2381 
L 678 2906 
z
M 678 1631 
L 4684 1631 
L 4684 1100 
L 678 1100 
L 678 1631 
z
" transform="scale(0.015625)"/>
      </defs>
      <use xlink:href="#DejaVuSans-70"/>
      <use xlink:href="#DejaVuSans-20" transform="translate(63.476562 0)"/>
      <use xlink:href="#DejaVuSans-3d" transform="translate(95.263672 0)"/>
      <use xlink:href="#DejaVuSans-20" transform="translate(179.052734 0)"/>
      <use xlink:href="#DejaVuSans-30" transform="translate(210.839844 0)"/>
      <use xlink:href="#DejaVuSans-2e" transform="translate(274.462891 0)"/>
      <use xlink:href="#DejaVuSans-30" transform="translate(306.25 0)"/>
      <use xlink:href="#DejaVuSans-35" transform="translate(369.873047 0)"/>
      <use xlink:href="#DejaVuSans-20" transform="translate(433.496094 0)"/>
      <use xlink:href="#DejaVuSans-54" transform="translate(465.283203 0)"/>
      <use xlink:href="#DejaVuSans-68" transform="translate(526.367188 0)"/>
      <use xlink:href="#DejaVuSans-72" transform="translate(589.746094 0)"/>
      <use xlink:href="#DejaVuSans-65" transform="translate(628.609375 0)"/>
      <use xlink:href="#DejaVuSans-73" transform="translate(690.132812 0)"/>
      <use xlink:href="#DejaVuSans-68" transform="translate(742.232422 0)"/>
      <use xlink:href="#DejaVuSans-6f" transform="translate(805.611328 0)"/>
      <use xlink:href="#DejaVuSans-6c" transform="translate(866.792969 0)"/>
      <use xlink:href="#DejaVuSans-64" transform="translate(894.576172 0)"/>
     </g>
    </g>
   </g>
  </g>
 </g>
 <defs>
  <clipPath id="p2905fb1e5e">
   <rect x="52.105625" y="22.318125" width="937.42" height="351.164438"/>
  </clipPath>
 </defs>
</svg>
